<?xml version="1.0" encoding="utf-8"?>
<!-- Generator: Adobe Illustrator 19.0.0, SVG Export Plug-In . SVG Version: 6.00 Build 0)  -->
<svg version="1.1"
	 id="svg4966" xmlns:dc="http://purl.org/dc/elements/1.1/" xmlns:cc="http://creativecommons.org/ns#" xmlns:rdf="http://www.w3.org/1999/02/22-rdf-syntax-ns#" xmlns:svg="http://www.w3.org/2000/svg" xmlns:sodipodi="http://sodipodi.sourceforge.net/DTD/sodipodi-0.dtd" xmlns:inkscape="http://www.inkscape.org/namespaces/inkscape" sodipodi:docname="OpenGapps empty.svg" inkscape:export-filename="D:\Google Drive\Pictures\Android\Material Designs\icons\OpenGapps empty.png" inkscape:export-ydpi="750" inkscape:export-xdpi="750" inkscape:version="0.91 r13725"
	 xmlns="http://www.w3.org/2000/svg" xmlns:xlink="http://www.w3.org/1999/xlink" x="0px" y="0px" viewBox="-153 55 192 192"
	 style="enable-background:new -153 55 192 192;" xml:space="preserve">
<style type="text/css">
	.st0{opacity:0.7;}
	.st1{fill:#FFFFFF;}
	.st2{opacity:0.2;fill:#263238;enable-background:new    ;}
	.st3{fill:#EEEEEE;}
	.st4{opacity:0.4;fill:#FFFFFF;enable-background:new    ;}
</style>
<sodipodi:namedview  units="px" showgrid="false" inkscape:cy="73.858352" inkscape:cx="70.900721" inkscape:zoom="3.959798" borderopacity="1.0" bordercolor="#666666" pagecolor="#ffffff" id="base" inkscape:window-x="-8" inkscape:window-height="1017" inkscape:window-width="1920" inkscape:document-units="px" inkscape:pageshadow="2" inkscape:pageopacity="0.0" inkscape:current-layer="layer2" inkscape:showpageshadow="false" inkscape:window-y="-8" inkscape:window-maximized="1">
	
		<inkscape:grid  color="#000000" spacingy="4" spacingx="4" empspacing="2" opacity="0.1254902" empcolor="#000000" empopacity="0.25098039" type="xygrid" id="grid5626">
		</inkscape:grid>
</sodipodi:namedview>
<g id="layer2" inkscape:label="background" inkscape:groupmode="layer" class="st0">
	<g id="flowRoot4238" transform="matrix(0.99467384,0,0,1.0268479,16.782269,-24.905782)">
		<path id="path4198" class="st1" d="M-69.6,204.5c-0.6,0.9-1.5,1.6-2.7,2.1c-1.1,0.5-2.5,0.7-4,0.7s-2.9-0.4-4.1-1.1
			c-1.2-0.7-2.1-1.8-2.8-3.1c-0.7-1.3-1-2.9-1-4.6v-1.7c0-2.9,0.7-5.1,2-6.6c1.3-1.6,3.2-2.4,5.6-2.4c2,0,3.6,0.5,4.8,1.5
			c1.2,1,1.9,2.4,2.2,4.3h-2.5c-0.5-2.5-2-3.8-4.5-3.8c-1.7,0-2.9,0.6-3.8,1.8s-1.3,2.9-1.3,5.1v1.5c0,2.1,0.5,3.8,1.5,5.1
			c1,1.2,2.3,1.9,3.9,1.9c0.9,0,1.8-0.1,2.5-0.3s1.3-0.6,1.7-1.1v-4.3h-4.4v-2h6.9L-69.6,204.5L-69.6,204.5z"/>
		<path id="path4200" class="st1" d="M-55,202h-7.9l-1.8,4.9h-2.6l7.2-19h2.2l7.3,19h-2.6L-55,202L-55,202z M-62.2,199.9h6.4
			L-59,191L-62.2,199.9z"/>
		<path id="path4202" class="st1" d="M-45.6,199.5v7.4H-48v-19h7c2.1,0,3.7,0.5,4.9,1.6s1.8,2.5,1.8,4.2c0,1.8-0.6,3.3-1.7,4.3
			c-1.1,1-2.8,1.5-4.9,1.5H-45.6L-45.6,199.5z M-45.6,197.5h4.5c1.3,0,2.4-0.3,3.1-0.9c0.7-0.6,1.1-1.5,1.1-2.7c0-1.1-0.4-2-1.1-2.7
			c-0.7-0.7-1.7-1-2.9-1.1h-4.6L-45.6,197.5L-45.6,197.5z"/>
		<path id="path4204" class="st1" d="M-28.7,199.5v7.4h-2.5v-19h7c2.1,0,3.7,0.5,4.9,1.6c1.2,1.1,1.8,2.5,1.8,4.2
			c0,1.8-0.6,3.3-1.7,4.3s-2.8,1.5-4.9,1.5H-28.7L-28.7,199.5z M-28.7,197.5h4.5c1.3,0,2.4-0.3,3.1-0.9c0.7-0.6,1.1-1.5,1.1-2.7
			c0-1.1-0.4-2-1.1-2.7s-1.7-1-2.9-1.1h-4.6v7.4H-28.7z"/>
		<path id="path4206" class="st1" d="M-8.8,198.5c-2.1-0.6-3.7-1.4-4.7-2.3c-1-0.9-1.5-2-1.5-3.3c0-1.5,0.6-2.7,1.8-3.7
			s2.8-1.5,4.7-1.5c1.3,0,2.5,0.3,3.5,0.8s1.8,1.2,2.4,2.1c0.6,0.9,0.8,1.9,0.8,2.9h-2.5c0-1.1-0.4-2-1.1-2.7s-1.8-1-3.1-1
			c-1.2,0-2.2,0.3-2.9,0.8s-1,1.3-1,2.3c0,0.8,0.3,1.4,1,2c0.7,0.5,1.8,1,3.3,1.5c1.6,0.4,2.8,0.9,3.7,1.5c0.9,0.5,1.6,1.2,2,1.9
			s0.7,1.5,0.7,2.5c0,1.5-0.6,2.8-1.8,3.7s-2.8,1.4-4.8,1.4c-1.3,0-2.5-0.2-3.6-0.7s-2-1.2-2.6-2.1c-0.6-0.9-0.9-1.9-0.9-3h2.5
			c0,1.1,0.4,2.1,1.3,2.7c0.9,0.7,2,1,3.4,1c1.3,0,2.3-0.3,3-0.8s1.1-1.3,1.1-2.2s-0.3-1.6-1-2.1C-5.9,199.5-7.1,199-8.8,198.5
			L-8.8,198.5z"/>
	</g>
</g>
<g id="layer5" inkscape:label="foreground shadow" sodipodi:insensitive="true" inkscape:groupmode="layer">
	<path id="path4603" inkscape:connector-curvature="0" class="st2" d="M-107,117.9c-13.3,0-24,10.7-24,24c0,9.7,5.8,18.4,14.7,22.1
		l4.4-11.2c-4.3-1.9-7.1-6.2-7.1-11c0-6.6,5.4-12,12-12s12,5.4,12,12c0,4.7-2.8,9-7.1,11l4.4,11.2c8.9-3.7,14.7-12.4,14.7-22.1
		C-83,128.6-93.7,117.9-107,117.9z M-79,133.9v5.4v21.1v5.4v8h8v-8h4c8.8,0,16-7.2,16-16s-7.2-16-16-16h-4
		C-71,133.9-79,133.9-79,133.9z M-31,133.9c-8.8,0-16,7.2-16,16s7.2,16,16,16h8v-6h-8c-4,0-7.6-2.4-9.2-6h2.2h6.9h6.9h2.2h2.8h3.5
		h0.5v-4C-15,141.1-22.2,133.9-31,133.9z M-11,133.9v32h8v-6.8v-17.2v-1.2v-0.8h4c5.5,0,10,4.5,10,10v16h6v-16c0-8.8-7.2-16-16-16
		h-4h-4H-11z M-71,139.9h3.5c5.8,0,10.5,4.5,10.5,10s-4.7,10-10.5,10H-71v-0.6v-1.4v-1.1V143v-1.1v-1.4V139.9z M-31,139.9
		c4,0,7.6,2.4,9.2,6H-24h-13.8H-40C-38.6,142.3-35,139.9-31,139.9z"/>
</g>
<g id="layer4" inkscape:label="foreground" sodipodi:insensitive="true" inkscape:groupmode="layer">
	<path id="path4248" inkscape:connector-curvature="0" class="st3" d="M-107,113.9c-13.3,0-24,10.7-24,24c0,9.7,5.8,18.4,14.7,22.1
		l4.4-11.2c-4.3-1.9-7.1-6.2-7.1-11c0-6.6,5.4-12,12-12s12,5.4,12,12c0,4.7-2.8,9-7.1,11l4.4,11.2c8.9-3.7,14.7-12.4,14.7-22.1
		C-83,124.6-93.7,113.9-107,113.9z M-79,129.9v5.4v21.1v5.4v8h8v-8h4c8.8,0,16-7.2,16-16s-7.2-16-16-16h-4
		C-71,129.9-79,129.9-79,129.9z M-31,129.9c-8.8,0-16,7.2-16,16s7.2,16,16,16h8v-6h-8c-4,0-7.6-2.4-9.2-6h2.2h6.9h6.9h2.2h2.8h3.5
		h0.5v-4C-15,137.1-22.2,129.9-31,129.9z M-11,129.9v32h8v-6.8v-17.2v-1.2v-0.8h4c5.5,0,10,4.5,10,10v16h6v-16c0-8.8-7.2-16-16-16
		h-4h-4H-11z M-71,135.9h3.5c5.8,0,10.5,4.5,10.5,10s-4.7,10-10.5,10H-71v-0.6v-1.4v-1.1V139v-1.1v-1.4V135.9z M-31,135.9
		c4,0,7.6,2.4,9.2,6H-24h-13.8H-40C-38.6,138.3-35,135.9-31,135.9z"/>
	<path id="path4593" inkscape:connector-curvature="0" class="st4" d="M-107,113.9c-13.3,0-24,10.7-24,24c0,0.1,0,0.3,0,0.4
		c0.3-13,11-23.4,24-23.4c13.1,0,23.7,10.5,24,23.6c0-0.2,0-0.4,0-0.6C-83,124.6-93.7,113.9-107,113.9z M-79,129.9v1h8h4
		c8.7,0,15.7,6.9,16,15.5c0-0.2,0-0.3,0-0.5c0-8.8-7.2-16-16-16h-4H-79z M-31,129.9c-8.8,0-16,7.2-16,16c0,0.2,0,0.3,0,0.5
		c0.3-8.6,7.3-15.5,16-15.5c8.8,0,16,7.2,16,16v-1C-15,137.1-22.2,129.9-31,129.9z M-11,129.9v1h4h4h4c8.8,0,16,7.2,16,16v-1
		c0-8.8-7.2-16-16-16h-4h-4H-11z M-95,138.3c-0.2,4.6-2.9,8.7-7.1,10.6l0.3,0.8c4.2-2,6.8-6.2,6.8-10.8C-95,138.7-95,138.5-95,138.3
		z M-119,138.5c0,0.1,0,0.2,0,0.4c0,4.6,2.7,8.8,6.8,10.8l0.3-0.8C-116,147-118.7,143-119,138.5z M-39.6,141.9
		c-0.2,0.3-0.4,0.7-0.5,1h2.2h13.8h2.2c-0.2-0.3-0.3-0.7-0.5-1h-1.7h-13.8C-37.9,141.9-39.6,141.9-39.6,141.9z M-57,146.4
		c-0.3,5.3-4.9,9.5-10.5,9.5H-71v0.4v0.6h3.5c5.8,0,10.5-4.5,10.5-10C-57,146.7-57,146.6-57,146.4z M-40.2,150.9
		c1.6,3.6,5.2,6,9.2,6h8v-1h-8c-3.6,0-6.9-1.9-8.6-5H-40.2z"/>
	<path id="path4598" inkscape:connector-curvature="0" class="st2" d="M-107,125.9c-6.6,0-12,5.4-12,12c0,0.2,0,0.4,0,0.6
		c0.2-6.5,5.5-11.6,12-11.6c6.4,0,11.7,5,12,11.4c0-0.1,0-0.3,0-0.4C-95,131.3-100.4,125.9-107,125.9z M-71,135.9v0.6v0.4h3.5
		c5.6,0,10.2,4.2,10.5,9.5c0-0.2,0-0.3,0-0.5c0-5.5-4.7-10-10.5-10H-71z M-31,135.9c-4,0-7.6,2.4-9.2,6h0.5c1.8-3.1,5.1-5,8.6-5
		c3.6,0,6.9,1.9,8.6,5h0.5C-23.4,138.3-27,135.9-31,135.9z M-3,135.9v0.8v0.2h4c5.5,0,10,4.5,10,10v-1c0-5.5-4.5-10-10-10H-3z
		 M-131,138.3c0,0.2,0,0.4,0,0.6c0,9.7,5.8,18.4,14.7,22.1l4.4-11.2c-0.1-0.1-0.2-0.1-0.3-0.2l-4.1,10.3
		C-125,156.4-130.8,147.8-131,138.3z M-83,138.5c-0.2,9.5-6,17.9-14.7,21.5l-4.1-10.3c-0.1,0.1-0.2,0.1-0.3,0.2l4.4,11.2
		c8.9-3.7,14.7-12.4,14.7-22.1C-83,138.8-83,138.6-83,138.5z M-51,146.4c-0.3,8.6-7.3,15.5-16,15.5h-4v1h4c8.8,0,16-7.2,16-16
		C-51,146.7-51,146.6-51,146.4z M-47,146.4c0,0.2,0,0.3,0,0.5c0,8.8,7.2,16,16,16h8v-1h-8C-39.7,161.9-46.7,155-47,146.4z
		 M-40.2,149.9c0.2,0.3,0.3,0.7,0.5,1h1.7h6.9h6.9h2.2h2.8h3.5h0.5v-1h-0.5H-19h-2.8H-24h-7h-6.9H-40.2z M-11,161.9v1h8v-1H-11z
		 M11,161.9v1h6v-1H11z M-79,169.9v1h8v-1H-79z"/>
</g>
</svg>
