<?xml version="1.0" encoding="UTF-8" standalone="no"?>
<!-- Created with Inkscape (http://www.inkscape.org/) -->

<svg
   xmlns:dc="http://purl.org/dc/elements/1.1/"
   xmlns:cc="http://creativecommons.org/ns#"
   xmlns:rdf="http://www.w3.org/1999/02/22-rdf-syntax-ns#"
   xmlns:svg="http://www.w3.org/2000/svg"
   xmlns="http://www.w3.org/2000/svg"
   xmlns:xlink="http://www.w3.org/1999/xlink"
   xmlns:sodipodi="http://sodipodi.sourceforge.net/DTD/sodipodi-0.dtd"
   xmlns:inkscape="http://www.inkscape.org/namespaces/inkscape"
   width="200"
   height="100"
   viewBox="0 0 200 100"
   id="svg4966"
   version="1.1"
   inkscape:version="0.91 r13725"
   sodipodi:docname="OpenGapps - halloween plain svg.svg"
   inkscape:export-filename="E:\Google Drive\Pictures\Android\Material Designs\icons\OpenGapps halloween.png"
   inkscape:export-xdpi="240"
   inkscape:export-ydpi="240">
  <sodipodi:namedview
     id="base"
     pagecolor="#000000"
     bordercolor="#666666"
     borderopacity="1.0"
     inkscape:pageopacity="0"
     inkscape:pageshadow="2"
     inkscape:zoom="2.8"
     inkscape:cx="-15.583292"
     inkscape:cy="17.755401"
     inkscape:document-units="px"
     inkscape:current-layer="layer6"
     showgrid="false"
     inkscape:showpageshadow="false"
     units="px"
     inkscape:window-width="1920"
     inkscape:window-height="1017"
     inkscape:window-x="-8"
     inkscape:window-y="-8"
     inkscape:window-maximized="1"
     inkscape:snap-object-midpoints="false"
     inkscape:snap-center="false">
    <inkscape:grid
       type="xygrid"
       id="grid5626"
       spacingy="4"
       spacingx="4"
       empspacing="2"
       color="#000000"
       opacity="0.1254902"
       empcolor="#000000"
       empopacity="0.25098039" />
  </sodipodi:namedview>
  <defs
     id="defs4968">
    <linearGradient
       inkscape:collect="always"
       id="linearGradient5021">
      <stop
         style="stop-color:#ffffff;stop-opacity:1;"
         offset="0"
         id="stop5023" />
      <stop
         style="stop-color:#ffffff;stop-opacity:0;"
         offset="1"
         id="stop5025" />
    </linearGradient>
    <linearGradient
       inkscape:collect="always"
       id="linearGradient4954">
      <stop
         style="stop-color:#000000;stop-opacity:1;"
         offset="0"
         id="stop4956" />
      <stop
         style="stop-color:#000000;stop-opacity:0;"
         offset="1"
         id="stop4958" />
    </linearGradient>
    <clipPath
       clipPathUnits="userSpaceOnUse"
       id="clipPath642">
      <path
         d="M 0,192 192,192 192,0 0,0 0,192 Z"
         id="path644"
         inkscape:connector-curvature="0" />
    </clipPath>
    <clipPath
       clipPathUnits="userSpaceOnUse"
       id="clipPath652">
      <path
         d="M -1.52588e-4,192 192,192 192,-1.83105e-4 l -192.000152588,0 0,192.000183105 z"
         id="path654"
         inkscape:connector-curvature="0" />
    </clipPath>
    <clipPath
       clipPathUnits="userSpaceOnUse"
       id="clipPath660">
      <path
         d="M -1.52588e-4,192 192,192 192,-1.83105e-4 l -192.000152588,0 0,192.000183105 z"
         id="path662"
         inkscape:connector-curvature="0" />
    </clipPath>
    <clipPath
       clipPathUnits="userSpaceOnUse"
       id="clipPath664">
      <path
         d="M 0,192 192,192 192,0 0,0 0,192 Z"
         id="path666"
         inkscape:connector-curvature="0" />
    </clipPath>
    <clipPath
       clipPathUnits="userSpaceOnUse"
       id="clipPath668">
      <path
         d="M 0,192 192,192 192,0 0,0 0,192 Z"
         id="path670"
         inkscape:connector-curvature="0" />
    </clipPath>
    <clipPath
       clipPathUnits="userSpaceOnUse"
       id="clipPath672">
      <path
         d="M 0,192 192,192 192,0 0,0 0,192 Z"
         id="path674"
         inkscape:connector-curvature="0" />
    </clipPath>
    <filter
       style="color-interpolation-filters:sRGB"
       inkscape:label="Drop Shadow"
       id="filter5709">
      <feFlood
         flood-opacity="0.121569"
         flood-color="rgb(0,0,0)"
         result="flood"
         id="feFlood5711" />
      <feComposite
         in="flood"
         in2="SourceGraphic"
         operator="in"
         result="composite1"
         id="feComposite5713" />
      <feGaussianBlur
         in="composite1"
         stdDeviation="2"
         result="blur"
         id="feGaussianBlur5715" />
      <feOffset
         dx="0"
         dy="0"
         result="offset"
         id="feOffset5717" />
      <feComposite
         in="SourceGraphic"
         in2="offset"
         operator="over"
         result="fbSourceGraphic"
         id="feComposite5719" />
      <feColorMatrix
         result="fbSourceGraphicAlpha"
         in="fbSourceGraphic"
         values="0 0 0 -1 0 0 0 0 -1 0 0 0 0 -1 0 0 0 0 1 0"
         id="feColorMatrix5721" />
      <feFlood
         id="feFlood5723"
         flood-opacity="0.121569"
         flood-color="rgb(0,0,0)"
         result="flood"
         in="fbSourceGraphic" />
      <feComposite
         id="feComposite5725"
         in2="fbSourceGraphic"
         in="flood"
         operator="in"
         result="composite1" />
      <feGaussianBlur
         id="feGaussianBlur5727"
         in="composite1"
         stdDeviation="2"
         result="blur" />
      <feOffset
         id="feOffset5729"
         dx="0"
         dy="4"
         result="offset" />
      <feComposite
         id="feComposite5731"
         in2="offset"
         in="fbSourceGraphic"
         operator="over"
         result="composite2" />
    </filter>
    <filter
       style="color-interpolation-filters:sRGB"
       inkscape:label="Blur"
       id="filter5775">
      <feGaussianBlur
         stdDeviation="2 2"
         result="blur"
         id="feGaussianBlur5777" />
    </filter>
    <filter
       style="color-interpolation-filters:sRGB"
       inkscape:label="Blur"
       id="filter5799">
      <feGaussianBlur
         stdDeviation="4 4"
         result="blur"
         id="feGaussianBlur5801" />
    </filter>
    <filter
       style="color-interpolation-filters:sRGB"
       inkscape:label="Blur"
       id="filter5980">
      <feGaussianBlur
         stdDeviation="2 2"
         result="blur"
         id="feGaussianBlur5982" />
    </filter>
    <filter
       style="color-interpolation-filters:sRGB"
       inkscape:label="Blur"
       id="filter5140">
      <feGaussianBlur
         stdDeviation="4 4"
         result="blur"
         id="feGaussianBlur5142" />
    </filter>
    <filter
       id="filter4683"
       inkscape:label="Blur"
       style="color-interpolation-filters:sRGB">
      <feGaussianBlur
         id="feGaussianBlur4685"
         result="blur"
         stdDeviation="4 4" />
    </filter>
    <filter
       id="filter4374"
       inkscape:label="Blur"
       style="color-interpolation-filters:sRGB">
      <feGaussianBlur
         id="feGaussianBlur4376"
         result="blur"
         stdDeviation="4 4" />
    </filter>
    <clipPath
       id="clipPath4382"
       clipPathUnits="userSpaceOnUse">
      <path
         inkscape:connector-curvature="0"
         style="display:inline;opacity:1;fill:#ff6b22;fill-opacity:1;stroke:none;stroke-width:3;stroke-linecap:round;stroke-linejoin:round;stroke-miterlimit:4;stroke-dasharray:none;stroke-dashoffset:3.20000005;stroke-opacity:1"
         d="M 96,8 A 88,88 0 0 0 8,96 88,88 0 0 0 96,184 88,88 0 0 0 184,96 88,88 0 0 0 96,8 Z M 46,64 A 24,24 0 0 1 70,88 24,24 0 0 1 55.257812,110.11719 L 50.861328,98.955078 A 12,12 0 0 0 58,88 12,12 0 0 0 46,76 12,12 0 0 0 34,88 12,12 0 0 0 41.136719,98.960938 L 36.734375,110.13477 A 24,24 0 0 1 22,88 24,24 0 0 1 46,64 Z m 28,16 8,0 4,0 c 8.836554,2e-6 16,7.163446 16,16 0,8.83656 -7.163444,16 -16,16 l -4,0 0,8 -8,0 0,-8 0,-5.44727 L 74,85.4375 74,80 Z m 48,0 c 8.83656,0 16,7.16345 16,16 l 0,4 -0.5293,0 -3.4707,0 -2.83984,0 -2.24024,0 -6.91992,0 -6.91602,0 -2.23632,0 c 1.58863,3.64002 5.18077,5.995 9.15234,6 l 8,0 0,6 -8,0 c -8.83656,0 -16,-7.16343 -16,-16 0,-8.83655 7.16344,-16 16,-16 z m 20,0 4,0 4,0 4,0 c 8.83656,0 16,7.163444 16,16 l 0,16 -6,0 0,-16 c 0,-5.522847 -4.47715,-10 -10,-10 l -4,0 0,0.847656 0,1.152344 0,17.15234 0,6.84766 -8,0 0,-32 z M 82,86 82,86.583984 82,88 l 0,1.083984 0,13.835936 0,1.08008 0,1.41602 0,0.58398 3.5,0 C 91.298992,106 96.000003,101.52285 96,96 96,90.477153 91.29899,86 85.5,86 L 82,86 Z m 40,0 c -3.97441,0.002 -7.5704,2.3574 -9.16016,6 l 2.24024,0 13.83594,0 2.23632,0 C 129.56371,88.35999 125.97157,86.005 122,86 Z"
         id="path4384" />
    </clipPath>
    <filter
       height="1.3700068"
       y="-0.18500341"
       width="1.1477751"
       x="-0.073887505"
       id="filter4660"
       style="color-interpolation-filters:sRGB"
       inkscape:collect="always">
      <feGaussianBlur
         id="feGaussianBlur4662"
         stdDeviation="2.4045364"
         inkscape:collect="always" />
    </filter>
    <filter
       height="1.4583039"
       y="-0.22915196"
       width="1.1830395"
       x="-0.091519751"
       id="filter4668"
       style="color-interpolation-filters:sRGB"
       inkscape:collect="always">
      <feGaussianBlur
         id="feGaussianBlur4670"
         stdDeviation="2.9783462"
         inkscape:collect="always" />
    </filter>
    <filter
       height="1.3113302"
       y="-0.15566511"
       width="1.1207327"
       x="-0.060366347"
       id="filter4680"
       style="color-interpolation-filters:sRGB"
       inkscape:collect="always">
      <feGaussianBlur
         id="feGaussianBlur4682"
         stdDeviation="2.8920831"
         inkscape:collect="always" />
    </filter>
    <linearGradient
       inkscape:collect="always"
       xlink:href="#linearGradient4954"
       id="linearGradient4960"
       x1="90.04464"
       y1="10.044644"
       x2="136.25893"
       y2="56.25893"
       gradientUnits="userSpaceOnUse"
       gradientTransform="translate(-46,92)" />
    <radialGradient
       inkscape:collect="always"
       xlink:href="#linearGradient5021"
       id="radialGradient5027"
       cx="9.6650429"
       cy="12.281267"
       fx="9.6650429"
       fy="12.281267"
       r="44.750979"
       gradientTransform="matrix(0,2.1308392,-2.1627664,0,36.226554,-12.737715)"
       gradientUnits="userSpaceOnUse" />
  </defs>
  <metadata
     id="metadata4971">
    <rdf:RDF>
      <cc:Work
         rdf:about="">
        <dc:format>image/svg+xml</dc:format>
        <dc:type
           rdf:resource="http://purl.org/dc/dcmitype/StillImage" />
        <dc:title></dc:title>
      </cc:Work>
    </rdf:RDF>
  </metadata>
  <g
     transform="translate(0,-92)"
     inkscape:groupmode="layer"
     id="layer2"
     inkscape:label="background"
     style="display:inline">
    <path
       sodipodi:nodetypes="sssss"
       inkscape:connector-curvature="0"
       id="path5283"
       d="m 55.9159,102.49798 c -24.7153,0 -44.75101,20.03571 -44.75101,44.75101 0,24.7153 20.03571,44.75101 44.75101,44.75101 24.7153,0 44.75101,-20.03571 44.75101,-44.75101 0,-24.7153 -20.03571,-44.75101 -44.75101,-44.75101 z"
       style="opacity:1;fill:#401a00;fill-opacity:1;stroke:none;stroke-width:3;stroke-linecap:round;stroke-linejoin:round;stroke-miterlimit:4;stroke-dasharray:none;stroke-dashoffset:3.20000005;stroke-opacity:1" />
    <path
       style="opacity:0.05;fill:#ffffff;fill-opacity:1;stroke:none;stroke-width:3;stroke-linecap:round;stroke-linejoin:round;stroke-miterlimit:4;stroke-dasharray:none;stroke-dashoffset:3.20000005;stroke-opacity:1"
       d="m 55.9159,102.49798 a 44.751011,44.751011 0 0 0 -44.75101,44.75101 44.751011,44.751011 0 0 0 0.0109,0.29797 44.751011,44.751011 0 0 1 44.74008,-44.54045 44.751011,44.751011 0 0 1 44.74009,44.45305 44.751011,44.751011 0 0 0 0.0109,-0.21057 44.751011,44.751011 0 0 0 -44.75101,-44.75101 z"
       id="circle5285"
       inkscape:connector-curvature="0" />
    <path
       id="path5290"
       d="m 55.9159,192 a 44.751011,44.751011 0 0 1 -44.75101,-44.75101 44.751011,44.751011 0 0 1 0.0109,-0.29797 44.751011,44.751011 0 0 0 44.74008,44.54045 44.751011,44.751011 0 0 0 44.74009,-44.45304 44.751011,44.751011 0 0 1 0.0109,0.21056 A 44.751011,44.751011 0 0 1 55.91585,192 Z"
       style="opacity:0.2;fill:#000000;fill-opacity:1;stroke:none;stroke-width:3;stroke-linecap:round;stroke-linejoin:round;stroke-miterlimit:4;stroke-dasharray:none;stroke-dashoffset:3.20000005;stroke-opacity:1"
       inkscape:connector-curvature="0" />
  </g>
  <g
     transform="translate(0,-92)"
     inkscape:groupmode="layer"
     id="layer5"
     inkscape:label="foreground shadow"
     style="display:inline">
    <path
       style="display:inline;opacity:0.15;fill:url(#linearGradient4960);fill-opacity:1;fill-rule:evenodd;stroke:none;stroke-width:1px;stroke-linecap:butt;stroke-linejoin:miter;stroke-opacity:1"
       d="m 59.15625,102.62695 c -0.0106,0.0129 -0.0206,0.0262 -0.0312,0.0391 -1.60608,1.76961 -5.987181,4.33144 -7.550781,6.13281 -0.06752,0.0719 -0.114473,0.13972 -0.146485,0.20508 -0.0076,0.0156 -0.0079,0.0297 -0.01367,0.0449 -0.01798,0.0478 -0.03103,0.0945 -0.03125,0.13867 -1.7e-4,0.0232 0.0073,0.0442 0.01172,0.0664 0.0065,0.0326 0.01349,0.0652 0.0293,0.0957 0.01243,0.0238 0.03105,0.0458 0.04883,0.0684 0.01354,0.0173 0.0206,0.0362 0.03711,0.0527 l 47.976566,47.97657 c 0.76421,-3.27725 1.17969,-6.68923 1.17969,-10.19922 0,-23.62447 -18.30874,-42.95916 -41.50977,-44.6211 z"
       id="path4768"
       inkscape:connector-curvature="0" />
    <path
       transform="matrix(0.50853421,0,0,0.50853421,7.09662,98.429706)"
       clip-path="url(#clipPath4382)"
       style="display:inline;opacity:0.2;fill:#000000;fill-opacity:1;fill-rule:evenodd;stroke:none;stroke-width:1px;stroke-linecap:butt;stroke-linejoin:miter;stroke-opacity:1;filter:url(#filter4374)"
       d="m 136.79058,39.15781 c -2.64185,-4.236418 -1.75108,-9.406987 -2.21629,-14.128178 1.13351,-6.654737 3.26609,-13.077332 5.28534,-19.5015326 2.24841,-1.9267038 1.104,-6.7304129 -2.16817,-6.4731019 -4.81943,-0.9297409 -8.94045,-3.8363896 -13.5651,-5.3205745 -1.46981,-1.552907 -4.29977,-4.12479 -5.35046,-0.635322 -0.68924,2.7008471 -1.66201,5.2748228 -3.43757,7.4660607 -2.84905,4.0381959 -5.88552,7.9545987 -9.02935,11.7638993 -3.15825,3.479824 -11.77195,8.518459 -14.846673,12.060743 -2.186205,2.329208 5.551964,2.887257 8.101128,2.175639 2.607515,-0.163547 5.450785,-1.328972 7.900365,0.118061 1.78782,2.527919 0.70855,6.377948 3.39392,8.391878 1.90711,2.636576 6.18348,2.374858 7.98797,-0.24515 2.04735,-2.378705 5.36443,-1.871793 7.55378,-0.04273 3.3114,1.778653 6.6928,3.551448 10.39111,4.370308 z"
       id="path4372"
       inkscape:connector-curvature="0"
       sodipodi:nodetypes="ccccccccccccccc" />
  </g>
  <g
     inkscape:groupmode="layer"
     id="layer9"
     inkscape:label="logo"
     style="display:inline">
    <path
       inkscape:connector-curvature="0"
       style="display:inline;opacity:1;fill:#fb351e;fill-opacity:1;stroke:none;stroke-width:1;stroke-linecap:butt;stroke-linejoin:round;stroke-miterlimit:4;stroke-dasharray:none;stroke-dashoffset:0;stroke-opacity:1;filter:url(#filter4660)"
       d="m 30.48919,38.94509 c -6.740536,10e-7 -12.204819,5.464284 -12.20482,12.20482 9.25e-4,4.919271 2.955048,9.357117 7.49293,11.25629 l 2.23875,-5.68228 c -2.205008,-0.977502 -3.627377,-3.162047 -3.62927,-5.57401 0,-3.370268 2.732142,-6.10241 6.10241,-6.10241 3.370268,0 6.10241,2.732142 6.10241,6.10241 -0.0032,2.411116 -1.425852,4.594263 -3.63026,5.57103 l 2.23576,5.67632 c 4.536444,-1.896684 7.491712,-6.330368 7.49691,-11.24735 -10e-7,-6.740536 -5.464284,-12.204819 -12.20482,-12.20482 z m 14.23896,8.13655 0,2.76515 0,10.73782 0,2.77012 0,4.06828 4.06827,0 0,-4.06828 2.03414,0 c 4.49369,0 8.13655,-3.64285 8.13655,-8.13654 0,-4.49369 -3.64286,-8.13655 -8.13655,-8.13655 l -2.03414,0 z m 24.40964,0 c -4.49369,0 -8.13655,3.64286 -8.13655,8.13655 0,4.49369 3.64286,8.13654 8.13655,8.13654 l 4.06827,0 0,-3.0512 -4.06827,0 c -2.01968,-0.003 -3.84641,-1.20013 -4.65428,-3.05121 l 1.13725,0 3.51703,0 3.51902,0 1.13923,0 1.44416,0 1.76497,0 0.26917,0 0,-2.03413 c 0,-4.49369 -3.64286,-8.13655 -8.13655,-8.13655 z m 10.17068,0 0,16.27309 4.06828,0 0,-3.48227 0,-8.72255 0,-0.586 0,-0.43107 2.03413,0 c 2.80856,0 5.08535,2.27679 5.08535,5.08535 l 0,8.13654 3.0512,0 0,-8.13654 c 0,-4.49369 -3.64285,-8.13655 -8.13655,-8.13655 l -2.03413,0 -2.03414,0 z m -30.51205,3.0512 1.77987,0 c 2.94899,0 5.33961,2.27679 5.33961,5.08535 0,2.80855 -2.39062,5.08534 -5.33961,5.08534 l -1.77987,0 0,-0.29698 0,-0.72009 0,-0.54926 0,-7.03604 0,-0.55125 0,-0.72009 z m 20.34137,0 c 2.01968,0.003 3.84641,1.20014 4.65428,3.05121 l -1.13725,0 -7.03605,0 -1.13923,0 c 0.80844,-1.85239 2.63713,-3.05019 4.65825,-3.05121 z"
       id="path4244"
       sodipodi:nodetypes="sccccsccccscccccccsssccssscccccccccccsscccccccssccssccccssscccccccccccccc" />
    <path
       inkscape:connector-curvature="0"
       style="display:inline;opacity:1;fill:#e84404;fill-opacity:1;stroke:none;stroke-width:1;stroke-linecap:butt;stroke-linejoin:round;stroke-miterlimit:4;stroke-dasharray:none;stroke-dashoffset:0;stroke-opacity:1;filter:url(#filter4668)"
       d="m 30.48919,38.98109 c -6.740536,10e-7 -12.204819,5.464284 -12.20482,12.20482 9.25e-4,4.919271 2.955048,9.357117 7.49293,11.25629 l 2.23875,-5.68228 c -2.205008,-0.977502 -3.627377,-3.162047 -3.62927,-5.57401 0,-3.370268 2.732142,-6.10241 6.10241,-6.10241 3.370268,0 6.10241,2.732142 6.10241,6.10241 -0.0032,2.411116 -1.425852,4.594263 -3.63026,5.57103 l 2.23576,5.67632 c 4.536444,-1.896684 7.491712,-6.330368 7.49691,-11.24735 -10e-7,-6.740536 -5.464284,-12.204819 -12.20482,-12.20482 z m 14.23896,8.13655 0,2.76515 0,10.73782 0,2.77012 0,4.06828 4.06827,0 0,-4.06828 2.03414,0 c 4.49369,0 8.13655,-3.64285 8.13655,-8.13654 0,-4.49369 -3.64286,-8.13655 -8.13655,-8.13655 l -2.03414,0 z m 24.40964,0 c -4.49369,0 -8.13655,3.64286 -8.13655,8.13655 0,4.49369 3.64286,8.13654 8.13655,8.13654 l 4.06827,0 0,-3.0512 -4.06827,0 c -2.01968,-0.003 -3.84641,-1.20013 -4.65428,-3.05121 l 1.13725,0 3.51703,0 3.51902,0 1.13923,0 1.44416,0 1.76497,0 0.26917,0 0,-2.03413 c 0,-4.49369 -3.64286,-8.13655 -8.13655,-8.13655 z m 10.17068,0 0,16.27309 4.06828,0 0,-3.48227 0,-8.72255 0,-0.586 0,-0.43107 2.03413,0 c 2.80856,0 5.08535,2.27679 5.08535,5.08535 l 0,8.13654 3.0512,0 0,-8.13654 c 0,-4.49369 -3.64285,-8.13655 -8.13655,-8.13655 l -2.03413,0 -2.03414,0 z m -30.51205,3.0512 1.77987,0 c 2.94899,0 5.33961,2.27679 5.33961,5.08535 0,2.80855 -2.39062,5.08534 -5.33961,5.08534 l -1.77987,0 0,-0.29698 0,-0.72009 0,-0.54926 0,-7.03604 0,-0.55125 0,-0.72009 z m 20.34137,0 c 2.01968,0.003 3.84641,1.20014 4.65428,3.05121 l -1.13725,0 -7.03605,0 -1.13923,0 c 0.80844,-1.85239 2.63713,-3.05019 4.65825,-3.05121 z"
       id="path4299"
       sodipodi:nodetypes="sccccsccccscccccccsssccssscccccccccccsscccccccssccssccccssscccccccccccccc" />
    <path
       style="display:inline;opacity:0.2;fill:#ff3d00;fill-opacity:1;stroke:none;stroke-width:3;stroke-linecap:round;stroke-linejoin:round;stroke-miterlimit:4;stroke-dasharray:none;stroke-dashoffset:3.20000005;stroke-opacity:1"
       d="m 30.48919,38.46736 a 12.204821,12.204821 0 0 0 -12.20482,12.20482 12.204821,12.204821 0 0 0 0.0109,0.21057 12.204821,12.204821 0 0 1 12.19389,-11.90685 12.204821,12.204821 0 0 1 12.1939,11.98631 12.204821,12.204821 0 0 0 0.0109,-0.29003 12.204821,12.204821 0 0 0 -12.20482,-12.20482 z m 14.23896,8.13655 0,0.50853 4.06827,0 2.03414,0 c 4.40789,0 7.98818,3.50726 8.12363,7.88228 0.003,-0.0852 0.0129,-0.16846 0.0129,-0.25426 0,-4.49369 -3.64286,-8.13655 -8.13655,-8.13655 l -2.03413,0 -4.06828,0 z m 24.40964,0 c -4.49369,0 -8.13655,3.64286 -8.13655,8.13655 0,0.0858 0.0103,0.1691 0.0129,0.25426 0.13545,-4.37501 3.71574,-7.88228 8.12363,-7.88228 4.49369,0 8.13655,3.64286 8.13655,8.13655 l 0,-0.50853 c 0,-4.49369 -3.64286,-8.13655 -8.13655,-8.13655 z m 10.17068,0 0,0.50853 2.03414,0 2.03414,0 2.03413,0 c 4.4937,0 8.13655,3.64286 8.13655,8.13655 l 0,-0.50853 c 0,-4.49369 -3.64285,-8.13655 -8.13655,-8.13655 l -2.03413,0 -2.03414,0 -2.03414,0 z M 36.58068,50.8748 a 6.1024105,6.1024105 0 0 1 -3.61934,5.36841 l 0.16885,0.42809 A 6.1024105,6.1024105 0 0 0 36.5916,51.18072 6.1024105,6.1024105 0 0 0 36.5807,50.8748 Z m -12.18496,0.12217 a 6.1024105,6.1024105 0 0 0 -0.009,0.18375 6.1024105,6.1024105 0 0 0 3.4624,5.48958 l 0.16687,-0.42411 a 6.1024105,6.1024105 0 0 1 -3.62033,-5.24922 z m 40.34404,1.70935 c -0.0947,0.16396 -0.18329,0.33225 -0.26022,0.50853 l 1.13923,0 7.03605,0 1.13725,0 c -0.0769,-0.17623 -0.16556,-0.34461 -0.26023,-0.50853 l -0.87702,0 -7.03605,0 -0.87901,0 z m -8.83776,2.2884 c -0.14014,2.68951 -2.46695,4.83108 -5.32571,4.83108 l -1.77987,0 0,0.21156 0,0.29697 1.77987,0 c 2.94899,0 5.33961,-2.27678 5.33961,-5.08534 0,-0.0859 -0.01,-0.16939 -0.0139,-0.25427 z m 8.58151,2.28841 c 0.80787,1.85107 2.6346,3.04866 4.65428,3.0512 l 4.06827,0 0,-0.50853 -4.06827,0 c -1.82739,-0.003 -3.49434,-0.98487 -4.39405,-2.54267 l -0.26023,0 z"
       id="path4593"
       inkscape:connector-curvature="0" />
    <path
       sodipodi:nodetypes="sccccsccccscccccccsssccssscccccccccccsscccccccssccssccccssscccccccccccccc"
       inkscape:connector-curvature="0"
       id="rect4240"
       d="m 30.48919,38.97009 c -6.740536,0 -12.204819,5.46428 -12.20482,12.20482 9.25e-4,4.91927 2.955048,9.35712 7.49293,11.25629 l 2.23875,-5.68228 c -2.205008,-0.9775 -3.627377,-3.16205 -3.62927,-5.57401 0,-3.37027 2.732142,-6.10241 6.10241,-6.10241 3.370268,0 6.10241,2.73214 6.10241,6.10241 -0.0032,2.41112 -1.425852,4.59426 -3.63026,5.57103 l 2.23576,5.67632 c 4.536444,-1.89668 7.491712,-6.33037 7.49691,-11.24735 -10e-7,-6.74054 -5.464284,-12.20482 -12.20482,-12.20482 z m 14.23896,8.13655 0,2.76515 0,10.73782 0,2.77012 0,4.06828 4.06827,0 0,-4.06828 2.03414,0 c 4.49369,0 8.13655,-3.64285 8.13655,-8.13654 0,-4.49369 -3.64286,-8.13655 -8.13655,-8.13655 l -2.03414,0 z m 24.40964,0 c -4.49369,0 -8.13655,3.64286 -8.13655,8.13655 0,4.49369 3.64286,8.13654 8.13655,8.13654 l 4.06827,0 0,-3.0512 -4.06827,0 c -2.01968,-0.003 -3.84641,-1.20013 -4.65428,-3.05121 l 1.13725,0 3.51703,0 3.51902,0 1.13923,0 1.44416,0 1.76497,0 0.26917,0 0,-2.03413 c 0,-4.49369 -3.64286,-8.13655 -8.13655,-8.13655 z m 10.17068,0 0,16.27309 4.06828,0 0,-3.48227 0,-8.72255 0,-0.586 0,-0.43107 2.03413,0 c 2.80856,0 5.08535,2.27679 5.08535,5.08535 l 0,8.13654 3.0512,0 0,-8.13654 c 0,-4.4937 -3.64285,-8.13655 -8.13655,-8.13655 l -2.03413,0 -2.03414,0 z m -30.51205,3.0512 1.77987,0 c 2.94899,0 5.33961,2.27679 5.33961,5.08535 0,2.80855 -2.39062,5.08534 -5.33961,5.08534 l -1.77987,0 0,-0.29698 0,-0.72009 0,-0.54926 0,-7.03605 0,-0.55124 0,-0.72009 z m 20.34137,0 c 2.01968,0.003 3.84641,1.20014 4.65428,3.05121 l -1.13725,0 -7.03605,0 -1.13923,0 c 0.80844,-1.85239 2.63713,-3.05019 4.65825,-3.05121 z"
       style="display:inline;opacity:1;fill:#eb4d00;fill-opacity:1;stroke:none;stroke-width:1;stroke-linecap:butt;stroke-linejoin:round;stroke-miterlimit:4;stroke-dasharray:none;stroke-dashoffset:0;stroke-opacity:1" />
    <g
       transform="matrix(0.33718099,0,0,0.34808759,13.74985,44.77571)"
       style="font-style:normal;font-weight:normal;font-size:40px;line-height:125%;font-family:sans-serif;letter-spacing:0px;word-spacing:0px;display:inline;fill:#d8590a;fill-opacity:1;stroke:none;stroke-width:1px;stroke-linecap:butt;stroke-linejoin:miter;stroke-opacity:1"
       id="flowRoot4276">
      <path
         d="m 126.96946,111.95187 -0.17395,0.86975 0,0.55085 -0.23194,0.40588 -0.37689,0.28992 -0.52185,-0.17395 -0.49286,-0.75379 -0.11597,-0.84076 -0.40588,-0.40588 -0.058,-1.0727 -0.46386,-1.56555 -0.66682,-1.0437 -0.57983,-1.24665 -0.31891,-1.07269 -0.52185,-1.56556 -0.11597,-1.24664 -0.66681,-0.92774 -0.6958,-0.60883 -0.89874,0.49286 -0.84076,0.52186 -2.43531,0.52185 -0.92774,-0.11597 -1.07269,-0.058 -2.08741,-0.75379 -1.36261,-0.60883 -0.11597,-0.52185 -1.07269,-0.49286 -0.23194,-0.695799 -0.49286,-0.49286 -0.40588,-1.130678 -0.17395,-0.985719 -0.058,-1.072695 -0.058,-1.681521 0.058,-1.768497 0.3479,-1.478579 -0.11597,-0.840761 -0.23193,-1.420595 -0.058,-1.65253 0.11597,-1.565554 0.52185,-1.188662 0.78278,-1.65253 0.78278,-1.362612 0.6958,-0.840761 0.43487,-0.811769 1.15967,-1.246645 0.78278,-1.072694 0.84076,-0.840761 0.81177,-0.898744 0.84076,-0.463868 1.13068,0.115967 1.01471,-0.463868 1.94245,-0.173951 0.84076,-0.66681 1.53656,-0.521851 1.24665,0.231934 0.84076,0.405884 0.72479,0.724794 0.3479,0.753785 0.40589,0.550844 0.11596,0.811768 -0.058,0.434877 -0.28992,0.405884 -0.78278,0.608827 -0.86975,0.347901 -1.56555,0 -0.92774,-0.289918 -1.07269,-0.318909 -1.13068,0.318909 -1.47858,0.753786 -1.18866,0.84076 -1.30463,0.898745 -0.26093,0.695802 -0.86975,0.608826 -0.78278,1.072695 -0.89874,1.304629 -0.57983,0.927736 -0.52186,1.449587 -0.55084,1.362612 -0.17395,1.536563 0,1.246645 -0.28992,1.362612 -0.31891,1.768497 -0.11596,1.50757 0.43487,1.768497 0.75379,1.246645 0.84076,0.840761 1.18866,0.405889 1.47858,0.66681 1.65253,0.28991 1.18866,-0.17395 0.60883,0 0.46387,-0.37689 0.89874,-0.98572 0.66681,-0.898744 0,-1.971439 0.17395,-1.246645 0.17395,-1.420595 0.3479,-1.304629 0.40589,-0.637819 -0.17395,-1.304628 0.17395,-0.550843 0.31891,-0.405885 0.3479,-0.434876 0.46386,-0.231934 0.89875,0.05798 0.95673,0.608827 0.3479,1.130678 0.28991,1.478579 0.20295,1.246646 0.40588,1.014711 0.46387,1.304628 0,1.536563 0.058,1.362612 -0.23193,1.420603 0,1.68152 -0.058,1.42059 0,1.94245 0.058,1.62354 0.40588,1.76849 0.14496,1.71052 0.11597,0.84076 0.28992,0.55084 z"
         style="font-style:normal;font-variant:normal;font-weight:normal;font-stretch:semi-expanded;font-size:59.37509918px;font-family:Chiller;-inkscape-font-specification:'Chiller Semi-Expanded';fill:#d8590a;fill-opacity:1"
         id="path5004"
         inkscape:connector-curvature="0" />
      <path
         d="m 157.64272,94.788757 -0.058,0.231934 -0.23193,0.115967 -0.17395,0 0,-0.173951 0.058,-0.231934 0.11597,-0.05798 0.28991,0.115967 z m 0.46387,17.105133 -0.23193,0.28992 -0.46387,0.17395 -0.17395,-0.28992 -0.31891,-0.43488 -0.40588,-0.81177 -0.57984,-0.78277 -0.84076,-1.47858 -0.60883,-1.4206 -0.23193,-1.01471 -0.40588,-0.55084 -0.7248,-2.05842 -0.57983,-0.72479 -0.46387,-1.0727 -0.66681,-1.07269 -0.52185,-0.46387 -1.24665,-1.36261 -0.26092,-0.782777 -0.98572,-0.695802 -1.24665,-0.231934 -1.33362,0.17395 -1.36261,0.231934 -0.98572,0.405885 -1.07269,0.956727 -1.01472,0.521852 -0.23193,0.492859 -0.78278,0.579836 -1.65253,0.95673 -0.31891,0.3479 -0.23193,1.30463 0,0.84076 -0.40588,0.46387 0,1.01471 -0.17395,1.07269 0.17395,1.73951 -0.17395,1.18866 -0.34791,1.24664 -0.55084,0.98572 -0.63782,0.78278 -1.07269,0.95673 -1.01471,0.17395 -0.95673,0.11596 -0.28992,-0.23193 -0.55084,0 -0.40589,-0.49286 -0.28991,-0.23193 0,-0.57984 -0.28992,-0.43487 0,-1.18867 0.28992,-0.75378 -0.058,-0.66681 0.17395,-0.40589 0.3479,-0.17395 0,-0.55084 0.55085,-0.28992 0.23193,-0.52185 0.3479,-0.72479 0.49286,-0.23194 0.46387,-1.07269 0.17395,-1.18866 0.28992,-0.17395 -0.11597,-0.78278 0.23194,-1.18866 0,-0.75379 -0.52186,-1.130676 -0.3479,-1.014711 -0.11596,-1.130678 -0.058,-0.782777 0.17395,-0.231934 -0.11596,-0.405885 0,-0.231934 0.86975,-1.072694 0,-0.347901 0.49286,-0.550843 0.63782,-1.014712 0.78277,-1.130678 0.17395,-0.811769 0.058,-0.608826 -0.058,-0.463868 0.28992,-1.478579 0.23194,-1.420596 0.49286,-1.797488 0.11596,-1.014712 0.23194,-0.463868 -0.058,-1.536562 -0.11596,-1.362612 0.11596,-1.304629 0.46387,-1.072695 0.43488,-0.84076 0.52185,-0.405885 0.17395,-0.782777 0.37689,-0.521851 0.17395,-0.49286 -0.17395,-0.347901 0.11597,-0.782777 -0.43488,-0.927736 0.11597,-0.956728 -0.3479,-0.434876 0.17395,-0.753786 0.37689,0 0.63782,-0.492859 0.3479,-0.05798 0.26093,-0.463868 0.92773,-0.115967 0.78278,0.347901 0.66681,1.014711 0.28992,0.173951 0.46387,0.898744 0.55084,1.072695 0.23193,1.014711 0.52185,1.15967 0.66681,0.898744 0.058,0.49286 0.46387,0.521851 0.28991,0.608827 0.55085,0.753785 -0.058,0.724794 0.52185,1.072695 0.058,0.463868 0.31891,0.579835 0.28991,1.014711 0.46387,0.84076 0.17395,1.420596 0.26093,1.014711 0.3479,1.420596 0,0.521851 0.28992,0.782778 0.40588,1.362612 0.37689,1.246645 0.11597,1.014711 0.28992,0.724794 0.78278,0.521851 0.92773,0.289918 1.13068,-0.05798 1.0727,0 1.07269,0.231934 0.17395,0.318909 0.23193,0.289918 -0.23193,0.17395 -0.17395,0.289918 -0.46387,0.492859 -0.60882,0.05798 -0.23194,0.289917 -0.89874,0.173951 -1.01471,0.463868 -0.40589,0.376893 0,0.695802 0.17395,0.84076 0.37689,0.840761 0.46387,0.811762 0.40589,1.18866 0.28991,0.7248 0.3769,1.13068 0.40588,1.01471 0.60883,1.24664 0.40588,1.04371 0.23194,1.62353 0.28991,0.17395 0.3769,0.84076 0.40588,0.81177 0,0.49286 0.28992,0.28992 0.23193,0.78278 z m 0.058,2.1164 q -0.029,0.058 -0.28992,0.11596 l -0.17395,-0.058 -0.058,-0.17395 0.17396,-0.17395 0.28991,0.058 0.058,0.23194 z m -23.30937,-21.830791 -0.058,0.289918 -0.26093,0.17395 -0.3479,-0.231934 0,-0.289917 0.28992,-0.318909 0.31891,-0.115967 0.058,0.17395 0,0.318909 z m -3.68195,14.582851 -0.26093,0.11597 -0.28991,-0.11597 0,-0.28992 0.17395,-0.11597 0.31891,0.058 0.058,0.17395 0,0.17395 z m 1.0437,7.7408 -0.058,0.23193 -0.40589,-0.058 -0.17395,-0.43488 0.28992,-0.058 0.3479,0 0,0.31891 z m 15.04672,-21.395915 -0.26093,-0.637818 -0.57983,-1.072695 -0.11597,-1.014711 -0.28992,-0.463868 -0.20294,-0.608827 -0.3479,-0.579834 0.058,-1.536563 -0.75378,-1.014711 0.23193,-0.434876 -0.28991,-0.695802 -0.3769,-2.087406 -0.46387,-0.956728 -0.058,-0.753785 -0.66681,-0.840761 -0.23193,-0.463868 -0.57984,-1.246645 -1.18866,1.188661 0.11597,0.753786 -0.43488,0.66681 0,0.695802 -0.11597,0.376893 -0.23193,1.188661 -0.11597,1.043703 0,0.31891 -0.28991,0.405884 0,0.840761 -0.11597,1.652529 0,0.782778 -0.31891,0.695801 0.20294,0.724794 -0.31891,0.898744 0.49286,0.695802 1.36261,0.608827 1.4206,0.521851 1.18866,0.666811 0.66681,0.463868 1.15967,0.231934 0.78278,-0.173951 0.23193,-0.17395 0.43488,-0.666811 z m -2.8122,0.115967 -0.3479,0.08698 -0.28992,-0.202943 0.058,-0.231934 0.28992,0 0.17395,-0.115967 0.11597,0.173951 0,0.289917 z"
         style="font-style:normal;font-variant:normal;font-weight:normal;font-stretch:semi-expanded;font-size:59.37509918px;font-family:Chiller;-inkscape-font-specification:'Chiller Semi-Expanded';fill:#d8590a;fill-opacity:1"
         id="path5006"
         inkscape:connector-curvature="0" />
      <path
         d="m 162.86124,81.191627 -0.11597,0.347901 -0.52185,0.289918 -0.49286,-0.579835 0.49286,-0.289918 0.63782,0.231934 z m 18.58371,-0.17395 -0.11597,1.188661 -0.17395,1.478579 -0.28992,1.130679 -0.37689,0.811769 -0.23193,0.84076 -0.46387,0.956728 -0.78278,0.521851 -0.40588,0.840761 -0.84076,0.840761 -0.84076,0.347901 -0.69581,0.463868 -2.98615,0.347901 -1.42059,-0.347901 -0.86975,0 -1.13068,-0.521852 -0.17395,-0.289917 0,-0.782777 0.23193,-0.173951 0.75379,0 0.84076,0.289918 0.89874,0.231933 1.65253,0.115967 1.4206,-0.115967 0.95673,-0.231933 0.57983,-0.840761 0.37689,-0.869753 0.81177,-1.130678 0.20294,-0.84076 0.52186,-0.782778 0.23193,-1.304628 0.11597,-2.232365 -0.28992,-1.130678 0,-1.188662 -0.46387,-1.014711 -0.89874,-1.739505 -0.23194,-0.695802 -0.55084,-0.289917 -0.40588,-1.014711 -1.24665,-0.608827 -0.95673,-0.347901 -1.53656,-0.17395 -1.65253,-0.05798 -1.62354,0.05798 -0.40588,0.405884 0.28992,0.898744 -0.40589,1.304629 -0.40588,1.362612 -0.43488,1.536563 -0.3479,1.565554 -0.17395,0.869752 -0.058,1.304629 -0.23194,1.188662 -0.14496,1.565554 -0.28991,1.188662 0,1.304628 -0.34791,1.420596 -0.17395,1.072695 -0.17395,1.246645 -0.49286,1.362612 -0.17395,1.304629 -0.40588,1.536562 -0.23194,1.536563 -0.37689,1.623538 -0.46387,1.652528 -1.42059,2.84119 -0.058,1.01471 -0.43487,0.89875 -0.3479,1.01471 0.058,1.30463 -0.11597,0.86975 -0.40588,1.07269 0.23193,1.47858 0.52185,0.7248 0.17396,0.78277 -0.17396,0.28992 -0.52185,0.058 -0.28991,0 -0.26093,-0.34791 -0.40588,-1.01471 -0.11597,-1.36261 0.17395,-1.7395 0.23193,-1.53657 0.11597,-1.59454 0,-1.18866 0.43488,-0.28992 0.28991,-0.72479 0.058,-1.4206 -0.23194,-1.420596 0.52185,-0.956728 0.55085,-2.49329 0.23193,-1.478579 0.28992,-1.246645 -0.28992,-1.188662 0.11597,-1.072695 0.3479,-1.971439 0.11597,-2.00043 0.31891,-1.739505 -0.058,-1.594546 0.3479,-1.362612 0.46387,-2.029423 0,-1.536562 0.31891,-2.203373 -0.31891,-1.362612 -0.17395,-1.420596 -0.17395,-0.898744 0.28992,-1.362612 0.66681,-0.637819 1.24664,-0.318909 1.13068,0.434876 0.81177,0 1.44959,-0.724793 1.42059,-0.231934 1.36262,0.17395 1.24664,-0.347901 1.4206,0.289918 1.59454,0.608826 1.18866,0.811769 1.0727,1.130679 0.89874,1.710513 0.40589,0.550843 0.11596,0.956728 0.49286,0.811768 0.28992,1.130679 0.17395,1.072694 -0.11596,0.956728 0.23193,0.840761 z"
         style="font-style:normal;font-variant:normal;font-weight:normal;font-stretch:semi-expanded;font-size:59.37509918px;font-family:Chiller;-inkscape-font-specification:'Chiller Semi-Expanded';fill:#d8590a;fill-opacity:1"
         id="path5008"
         inkscape:connector-curvature="0" />
      <path
         d="m 186.28657,81.191627 -0.11596,0.347901 -0.52185,0.289918 -0.49286,-0.579835 0.49286,-0.289918 0.63781,0.231934 z m 18.58371,-0.17395 -0.11596,1.188661 -0.17395,1.478579 -0.28992,1.130679 -0.37689,0.811769 -0.23194,0.84076 -0.46387,0.956728 -0.78277,0.521851 -0.40589,0.840761 -0.84076,0.840761 -0.84076,0.347901 -0.6958,0.463868 -2.98615,0.347901 -1.4206,-0.347901 -0.86975,0 -1.13068,-0.521852 -0.17395,-0.289917 0,-0.782777 0.23194,-0.173951 0.75378,0 0.84076,0.289918 0.89875,0.231933 1.65253,0.115967 1.42059,-0.115967 0.95673,-0.231933 0.57984,-0.840761 0.37689,-0.869753 0.81177,-1.130678 0.20294,-0.84076 0.52185,-0.782778 0.23193,-1.304628 0.11597,-2.232365 -0.28992,-1.130678 0,-1.188662 -0.46386,-1.014711 -0.89875,-1.739505 -0.23193,-0.695802 -0.55085,-0.289917 -0.40588,-1.014711 -1.24664,-0.608827 -0.95673,-0.347901 -1.53657,-0.17395 -1.65252,-0.05798 -1.62354,0.05798 -0.40589,0.405884 0.28992,0.898744 -0.40588,1.304629 -0.40589,1.362612 -0.43487,1.536563 -0.34791,1.565554 -0.17395,0.869752 -0.058,1.304629 -0.23193,1.188662 -0.14496,1.565554 -0.28992,1.188662 0,1.304628 -0.3479,1.420596 -0.17395,1.072695 -0.17395,1.246645 -0.49286,1.362612 -0.17395,1.304629 -0.40589,1.536562 -0.23193,1.536563 -0.37689,1.623538 -0.46387,1.652528 -1.4206,2.84119 -0.058,1.01471 -0.43488,0.89875 -0.3479,1.01471 0.058,1.30463 -0.11597,0.86975 -0.40589,1.07269 0.23194,1.47858 0.52185,0.7248 0.17395,0.78277 -0.17395,0.28992 -0.52185,0.058 -0.28992,0 -0.26092,-0.34791 -0.40589,-1.01471 -0.11597,-1.36261 0.17395,-1.7395 0.23194,-1.53657 0.11597,-1.59454 0,-1.18866 0.43487,-0.28992 0.28992,-0.72479 0.058,-1.4206 -0.23193,-1.420596 0.52185,-0.956728 0.55084,-2.49329 0.23194,-1.478579 0.28991,-1.246645 -0.28991,-1.188662 0.11596,-1.072695 0.34791,-1.971439 0.11596,-2.00043 0.31891,-1.739505 -0.058,-1.594546 0.3479,-1.362612 0.46387,-2.029423 0,-1.536562 0.31891,-2.203373 -0.31891,-1.362612 -0.17395,-1.420596 -0.17395,-0.898744 0.28991,-1.362612 0.66681,-0.637819 1.24665,-0.318909 1.13068,0.434876 0.81177,0 1.44958,-0.724793 1.4206,-0.231934 1.36261,0.17395 1.24665,-0.347901 1.42059,0.289918 1.59455,0.608826 1.18866,0.811769 1.07269,1.130679 0.89875,1.710513 0.40588,0.550843 0.11597,0.956728 0.49286,0.811768 0.28992,1.130679 0.17395,1.072694 -0.11597,0.956728 0.23193,0.840761 z"
         style="font-style:normal;font-variant:normal;font-weight:normal;font-stretch:semi-expanded;font-size:59.37509918px;font-family:Chiller;-inkscape-font-specification:'Chiller Semi-Expanded';fill:#d8590a;fill-opacity:1"
         id="path5010"
         inkscape:connector-curvature="0" />
      <path
         d="m 223.30903,81.713479 -0.058,0.66681 -0.78278,0.17395 -0.52185,-0.05798 -0.60882,-0.550843 0.55084,-0.463868 0.84076,-0.05798 0.57983,0.289918 z m -0.23193,-1.304629 -0.55084,0.724794 -0.75379,0 -0.89874,-0.31891 -0.84076,-0.405884 -0.86976,-0.637818 -0.17395,-0.550844 -1.07269,-0.231934 -0.60883,-0.231934 -1.18866,0.173951 -1.01471,0 -1.0437,0.05798 -1.44959,0.521852 -1.0437,0.608826 -1.68152,1.536563 -0.34791,0.840761 -0.55084,1.188661 0.14496,1.362613 0.46387,1.130678 0.46387,0.695802 1.50757,1.072694 0.86975,0.724794 1.01471,0.637818 0.78278,0.724794 0.92773,0.695802 1.91346,1.130678 0.95673,0.840761 0.6958,0.782777 0.66681,0.463868 0.17395,0.66681 0.95673,1.536563 0.40588,0.956728 0.23194,1.043703 0.43487,1.130678 0.3479,1.072695 0.058,1.53656 -0.23194,1.18867 -0.66681,1.3916 -0.3479,1.10169 -0.72479,0.78277 -0.3479,0.7248 -0.84076,0.86975 -0.75379,0.60883 -1.24664,0.46386 -1.68153,0.28992 -1.15967,0.26093 -1.33362,-0.26093 -0.92773,-0.058 -0.84076,-0.17395 -0.63782,-0.3479 -0.43488,0 -0.23193,-0.28992 0.11597,-0.66681 0.23193,-0.3479 0.43488,0 0,0.3479 0.11596,0.23193 0.40589,0.26093 0.84076,0.3479 1.88446,0.11597 0.60883,-0.17395 0.92773,0.058 1.24665,-0.3479 1.13068,-0.49286 1.3916,-0.95673 0.23193,-0.6958 0.57984,-0.95673 0.3479,-1.01471 0.43488,-0.75378 0.058,-0.89875 0.28992,-1.30463 -0.23194,-0.84076 -0.23193,-1.130679 -0.60883,-0.869752 -0.28991,-1.072695 -0.52186,-1.014711 -0.37689,-0.956728 -0.6958,-0.405884 -0.55084,-0.608827 -0.81177,-0.579835 -0.7248,-0.724794 -1.30462,-0.579835 -0.78278,-0.782777 -0.86975,-0.17395 -0.84077,-0.724794 -1.07269,-0.753785 -0.57983,-0.49286 -1.0727,-0.289918 -1.01471,-0.898744 -0.89874,-1.043703 -0.52186,-1.072694 -0.55084,-1.130678 0,-2.261357 0.49286,-1.246645 0.57984,-1.188662 0.66681,-1.014711 0.75378,-0.811769 0.72479,-0.66681 0.89875,-0.724794 1.07269,-0.521851 0.92774,-0.347901 1.36261,-0.05798 1.30463,-0.115967 1.30463,-0.31891 1.13068,-0.579835 1.18866,-0.347901 0.55084,-0.434876 1.13068,0.173951 0.63782,0.608826 0.37689,1.072695 0.46387,0.579835 0.57983,0.608827 0.3769,0.927736 0.11596,0.898744 0.11597,1.130678 z"
         style="font-style:normal;font-variant:normal;font-weight:normal;font-stretch:semi-expanded;font-size:59.37509918px;font-family:Chiller;-inkscape-font-specification:'Chiller Semi-Expanded';fill:#d8590a;fill-opacity:1"
         id="path5012"
         inkscape:connector-curvature="0" />
    </g>
    <g
       transform="matrix(0.33718099,0,0,0.34808759,13.74985,44.77571)"
       style="font-style:normal;font-weight:normal;font-size:40px;line-height:125%;font-family:sans-serif;letter-spacing:0px;word-spacing:0px;display:inline;opacity:0.49000005;fill:#ff5622;fill-opacity:1;stroke:none;stroke-width:1px;stroke-linecap:butt;stroke-linejoin:miter;stroke-opacity:1;filter:url(#filter4680)"
       id="flowRoot4416">
      <path
         d="m 126.96946,111.95187 -0.17395,0.86975 0,0.55085 -0.23194,0.40588 -0.37689,0.28992 -0.52185,-0.17395 -0.49286,-0.75379 -0.11597,-0.84076 -0.40588,-0.40588 -0.058,-1.0727 -0.46386,-1.56555 -0.66682,-1.0437 -0.57983,-1.24665 -0.31891,-1.07269 -0.52185,-1.56556 -0.11597,-1.24664 -0.66681,-0.92774 -0.6958,-0.60883 -0.89874,0.49286 -0.84076,0.52186 -2.43531,0.52185 -0.92774,-0.11597 -1.07269,-0.058 -2.08741,-0.75379 -1.36261,-0.60883 -0.11597,-0.52185 -1.07269,-0.49286 -0.23194,-0.695799 -0.49286,-0.49286 -0.40588,-1.130678 -0.17395,-0.985719 -0.058,-1.072695 -0.058,-1.681521 0.058,-1.768497 0.3479,-1.478579 -0.11597,-0.840761 -0.23193,-1.420595 -0.058,-1.65253 0.11597,-1.565554 0.52185,-1.188662 0.78278,-1.65253 0.78278,-1.362612 0.6958,-0.840761 0.43487,-0.811769 1.15967,-1.246645 0.78278,-1.072694 0.84076,-0.840761 0.81177,-0.898744 0.84076,-0.463868 1.13068,0.115967 1.01471,-0.463868 1.94245,-0.173951 0.84076,-0.66681 1.53656,-0.521851 1.24665,0.231934 0.84076,0.405884 0.72479,0.724794 0.3479,0.753785 0.40589,0.550844 0.11596,0.811768 -0.058,0.434877 -0.28992,0.405884 -0.78278,0.608827 -0.86975,0.347901 -1.56555,0 -0.92774,-0.289918 -1.07269,-0.318909 -1.13068,0.318909 -1.47858,0.753786 -1.18866,0.84076 -1.30463,0.898745 -0.26093,0.695802 -0.86975,0.608826 -0.78278,1.072695 -0.89874,1.304629 -0.57983,0.927736 -0.52186,1.449587 -0.55084,1.362612 -0.17395,1.536563 0,1.246645 -0.28992,1.362612 -0.31891,1.768497 -0.11596,1.50757 0.43487,1.768497 0.75379,1.246645 0.84076,0.840761 1.18866,0.405889 1.47858,0.66681 1.65253,0.28991 1.18866,-0.17395 0.60883,0 0.46387,-0.37689 0.89874,-0.98572 0.66681,-0.898744 0,-1.971439 0.17395,-1.246645 0.17395,-1.420595 0.3479,-1.304629 0.40589,-0.637819 -0.17395,-1.304628 0.17395,-0.550843 0.31891,-0.405885 0.3479,-0.434876 0.46386,-0.231934 0.89875,0.05798 0.95673,0.608827 0.3479,1.130678 0.28991,1.478579 0.20295,1.246646 0.40588,1.014711 0.46387,1.304628 0,1.536563 0.058,1.362612 -0.23193,1.420603 0,1.68152 -0.058,1.42059 0,1.94245 0.058,1.62354 0.40588,1.76849 0.14496,1.71052 0.11597,0.84076 0.28992,0.55084 z"
         style="font-style:normal;font-variant:normal;font-weight:normal;font-stretch:semi-expanded;font-size:59.37509918px;font-family:Chiller;-inkscape-font-specification:'Chiller Semi-Expanded';fill:#ff5622;fill-opacity:1"
         id="path4993"
         inkscape:connector-curvature="0" />
      <path
         d="m 157.64272,94.788757 -0.058,0.231934 -0.23193,0.115967 -0.17395,0 0,-0.173951 0.058,-0.231934 0.11597,-0.05798 0.28991,0.115967 z m 0.46387,17.105133 -0.23193,0.28992 -0.46387,0.17395 -0.17395,-0.28992 -0.31891,-0.43488 -0.40588,-0.81177 -0.57984,-0.78277 -0.84076,-1.47858 -0.60883,-1.4206 -0.23193,-1.01471 -0.40588,-0.55084 -0.7248,-2.05842 -0.57983,-0.72479 -0.46387,-1.0727 -0.66681,-1.07269 -0.52185,-0.46387 -1.24665,-1.36261 -0.26092,-0.782777 -0.98572,-0.695802 -1.24665,-0.231934 -1.33362,0.17395 -1.36261,0.231934 -0.98572,0.405885 -1.07269,0.956727 -1.01472,0.521852 -0.23193,0.492859 -0.78278,0.579836 -1.65253,0.95673 -0.31891,0.3479 -0.23193,1.30463 0,0.84076 -0.40588,0.46387 0,1.01471 -0.17395,1.07269 0.17395,1.73951 -0.17395,1.18866 -0.34791,1.24664 -0.55084,0.98572 -0.63782,0.78278 -1.07269,0.95673 -1.01471,0.17395 -0.95673,0.11596 -0.28992,-0.23193 -0.55084,0 -0.40589,-0.49286 -0.28991,-0.23193 0,-0.57984 -0.28992,-0.43487 0,-1.18867 0.28992,-0.75378 -0.058,-0.66681 0.17395,-0.40589 0.3479,-0.17395 0,-0.55084 0.55085,-0.28992 0.23193,-0.52185 0.3479,-0.72479 0.49286,-0.23194 0.46387,-1.07269 0.17395,-1.18866 0.28992,-0.17395 -0.11597,-0.78278 0.23194,-1.18866 0,-0.75379 -0.52186,-1.130676 -0.3479,-1.014711 -0.11596,-1.130678 -0.058,-0.782777 0.17395,-0.231934 -0.11596,-0.405885 0,-0.231934 0.86975,-1.072694 0,-0.347901 0.49286,-0.550843 0.63782,-1.014712 0.78277,-1.130678 0.17395,-0.811769 0.058,-0.608826 -0.058,-0.463868 0.28992,-1.478579 0.23194,-1.420596 0.49286,-1.797488 0.11596,-1.014712 0.23194,-0.463868 -0.058,-1.536562 -0.11596,-1.362612 0.11596,-1.304629 0.46387,-1.072695 0.43488,-0.84076 0.52185,-0.405885 0.17395,-0.782777 0.37689,-0.521851 0.17395,-0.49286 -0.17395,-0.347901 0.11597,-0.782777 -0.43488,-0.927736 0.11597,-0.956728 -0.3479,-0.434876 0.17395,-0.753786 0.37689,0 0.63782,-0.492859 0.3479,-0.05798 0.26093,-0.463868 0.92773,-0.115967 0.78278,0.347901 0.66681,1.014711 0.28992,0.173951 0.46387,0.898744 0.55084,1.072695 0.23193,1.014711 0.52185,1.15967 0.66681,0.898744 0.058,0.49286 0.46387,0.521851 0.28991,0.608827 0.55085,0.753785 -0.058,0.724794 0.52185,1.072695 0.058,0.463868 0.31891,0.579835 0.28991,1.014711 0.46387,0.84076 0.17395,1.420596 0.26093,1.014711 0.3479,1.420596 0,0.521851 0.28992,0.782778 0.40588,1.362612 0.37689,1.246645 0.11597,1.014711 0.28992,0.724794 0.78278,0.521851 0.92773,0.289918 1.13068,-0.05798 1.0727,0 1.07269,0.231934 0.17395,0.318909 0.23193,0.289918 -0.23193,0.17395 -0.17395,0.289918 -0.46387,0.492859 -0.60882,0.05798 -0.23194,0.289917 -0.89874,0.173951 -1.01471,0.463868 -0.40589,0.376893 0,0.695802 0.17395,0.84076 0.37689,0.840761 0.46387,0.811762 0.40589,1.18866 0.28991,0.7248 0.3769,1.13068 0.40588,1.01471 0.60883,1.24664 0.40588,1.04371 0.23194,1.62353 0.28991,0.17395 0.3769,0.84076 0.40588,0.81177 0,0.49286 0.28992,0.28992 0.23193,0.78278 z m 0.058,2.1164 q -0.029,0.058 -0.28992,0.11596 l -0.17395,-0.058 -0.058,-0.17395 0.17396,-0.17395 0.28991,0.058 0.058,0.23194 z m -23.30937,-21.830791 -0.058,0.289918 -0.26093,0.17395 -0.3479,-0.231934 0,-0.289917 0.28992,-0.318909 0.31891,-0.115967 0.058,0.17395 0,0.318909 z m -3.68195,14.582851 -0.26093,0.11597 -0.28991,-0.11597 0,-0.28992 0.17395,-0.11597 0.31891,0.058 0.058,0.17395 0,0.17395 z m 1.0437,7.7408 -0.058,0.23193 -0.40589,-0.058 -0.17395,-0.43488 0.28992,-0.058 0.3479,0 0,0.31891 z m 15.04672,-21.395915 -0.26093,-0.637818 -0.57983,-1.072695 -0.11597,-1.014711 -0.28992,-0.463868 -0.20294,-0.608827 -0.3479,-0.579834 0.058,-1.536563 -0.75378,-1.014711 0.23193,-0.434876 -0.28991,-0.695802 -0.3769,-2.087406 -0.46387,-0.956728 -0.058,-0.753785 -0.66681,-0.840761 -0.23193,-0.463868 -0.57984,-1.246645 -1.18866,1.188661 0.11597,0.753786 -0.43488,0.66681 0,0.695802 -0.11597,0.376893 -0.23193,1.188661 -0.11597,1.043703 0,0.31891 -0.28991,0.405884 0,0.840761 -0.11597,1.652529 0,0.782778 -0.31891,0.695801 0.20294,0.724794 -0.31891,0.898744 0.49286,0.695802 1.36261,0.608827 1.4206,0.521851 1.18866,0.666811 0.66681,0.463868 1.15967,0.231934 0.78278,-0.173951 0.23193,-0.17395 0.43488,-0.666811 z m -2.8122,0.115967 -0.3479,0.08698 -0.28992,-0.202943 0.058,-0.231934 0.28992,0 0.17395,-0.115967 0.11597,0.173951 0,0.289917 z"
         style="font-style:normal;font-variant:normal;font-weight:normal;font-stretch:semi-expanded;font-size:59.37509918px;font-family:Chiller;-inkscape-font-specification:'Chiller Semi-Expanded';fill:#ff5622;fill-opacity:1"
         id="path4995"
         inkscape:connector-curvature="0" />
      <path
         d="m 162.86124,81.191627 -0.11597,0.347901 -0.52185,0.289918 -0.49286,-0.579835 0.49286,-0.289918 0.63782,0.231934 z m 18.58371,-0.17395 -0.11597,1.188661 -0.17395,1.478579 -0.28992,1.130679 -0.37689,0.811769 -0.23193,0.84076 -0.46387,0.956728 -0.78278,0.521851 -0.40588,0.840761 -0.84076,0.840761 -0.84076,0.347901 -0.69581,0.463868 -2.98615,0.347901 -1.42059,-0.347901 -0.86975,0 -1.13068,-0.521852 -0.17395,-0.289917 0,-0.782777 0.23193,-0.173951 0.75379,0 0.84076,0.289918 0.89874,0.231933 1.65253,0.115967 1.4206,-0.115967 0.95673,-0.231933 0.57983,-0.840761 0.37689,-0.869753 0.81177,-1.130678 0.20294,-0.84076 0.52186,-0.782778 0.23193,-1.304628 0.11597,-2.232365 -0.28992,-1.130678 0,-1.188662 -0.46387,-1.014711 -0.89874,-1.739505 -0.23194,-0.695802 -0.55084,-0.289917 -0.40588,-1.014711 -1.24665,-0.608827 -0.95673,-0.347901 -1.53656,-0.17395 -1.65253,-0.05798 -1.62354,0.05798 -0.40588,0.405884 0.28992,0.898744 -0.40589,1.304629 -0.40588,1.362612 -0.43488,1.536563 -0.3479,1.565554 -0.17395,0.869752 -0.058,1.304629 -0.23194,1.188662 -0.14496,1.565554 -0.28991,1.188662 0,1.304628 -0.34791,1.420596 -0.17395,1.072695 -0.17395,1.246645 -0.49286,1.362612 -0.17395,1.304629 -0.40588,1.536562 -0.23194,1.536563 -0.37689,1.623538 -0.46387,1.652528 -1.42059,2.84119 -0.058,1.01471 -0.43487,0.89875 -0.3479,1.01471 0.058,1.30463 -0.11597,0.86975 -0.40588,1.07269 0.23193,1.47858 0.52185,0.7248 0.17396,0.78277 -0.17396,0.28992 -0.52185,0.058 -0.28991,0 -0.26093,-0.34791 -0.40588,-1.01471 -0.11597,-1.36261 0.17395,-1.7395 0.23193,-1.53657 0.11597,-1.59454 0,-1.18866 0.43488,-0.28992 0.28991,-0.72479 0.058,-1.4206 -0.23194,-1.420596 0.52185,-0.956728 0.55085,-2.49329 0.23193,-1.478579 0.28992,-1.246645 -0.28992,-1.188662 0.11597,-1.072695 0.3479,-1.971439 0.11597,-2.00043 0.31891,-1.739505 -0.058,-1.594546 0.3479,-1.362612 0.46387,-2.029423 0,-1.536562 0.31891,-2.203373 -0.31891,-1.362612 -0.17395,-1.420596 -0.17395,-0.898744 0.28992,-1.362612 0.66681,-0.637819 1.24664,-0.318909 1.13068,0.434876 0.81177,0 1.44959,-0.724793 1.42059,-0.231934 1.36262,0.17395 1.24664,-0.347901 1.4206,0.289918 1.59454,0.608826 1.18866,0.811769 1.0727,1.130679 0.89874,1.710513 0.40589,0.550843 0.11596,0.956728 0.49286,0.811768 0.28992,1.130679 0.17395,1.072694 -0.11596,0.956728 0.23193,0.840761 z"
         style="font-style:normal;font-variant:normal;font-weight:normal;font-stretch:semi-expanded;font-size:59.37509918px;font-family:Chiller;-inkscape-font-specification:'Chiller Semi-Expanded';fill:#ff5622;fill-opacity:1"
         id="path4997"
         inkscape:connector-curvature="0" />
      <path
         d="m 186.28657,81.191627 -0.11596,0.347901 -0.52185,0.289918 -0.49286,-0.579835 0.49286,-0.289918 0.63781,0.231934 z m 18.58371,-0.17395 -0.11596,1.188661 -0.17395,1.478579 -0.28992,1.130679 -0.37689,0.811769 -0.23194,0.84076 -0.46387,0.956728 -0.78277,0.521851 -0.40589,0.840761 -0.84076,0.840761 -0.84076,0.347901 -0.6958,0.463868 -2.98615,0.347901 -1.4206,-0.347901 -0.86975,0 -1.13068,-0.521852 -0.17395,-0.289917 0,-0.782777 0.23194,-0.173951 0.75378,0 0.84076,0.289918 0.89875,0.231933 1.65253,0.115967 1.42059,-0.115967 0.95673,-0.231933 0.57984,-0.840761 0.37689,-0.869753 0.81177,-1.130678 0.20294,-0.84076 0.52185,-0.782778 0.23193,-1.304628 0.11597,-2.232365 -0.28992,-1.130678 0,-1.188662 -0.46386,-1.014711 -0.89875,-1.739505 -0.23193,-0.695802 -0.55085,-0.289917 -0.40588,-1.014711 -1.24664,-0.608827 -0.95673,-0.347901 -1.53657,-0.17395 -1.65252,-0.05798 -1.62354,0.05798 -0.40589,0.405884 0.28992,0.898744 -0.40588,1.304629 -0.40589,1.362612 -0.43487,1.536563 -0.34791,1.565554 -0.17395,0.869752 -0.058,1.304629 -0.23193,1.188662 -0.14496,1.565554 -0.28992,1.188662 0,1.304628 -0.3479,1.420596 -0.17395,1.072695 -0.17395,1.246645 -0.49286,1.362612 -0.17395,1.304629 -0.40589,1.536562 -0.23193,1.536563 -0.37689,1.623538 -0.46387,1.652528 -1.4206,2.84119 -0.058,1.01471 -0.43488,0.89875 -0.3479,1.01471 0.058,1.30463 -0.11597,0.86975 -0.40589,1.07269 0.23194,1.47858 0.52185,0.7248 0.17395,0.78277 -0.17395,0.28992 -0.52185,0.058 -0.28992,0 -0.26092,-0.34791 -0.40589,-1.01471 -0.11597,-1.36261 0.17395,-1.7395 0.23194,-1.53657 0.11597,-1.59454 0,-1.18866 0.43487,-0.28992 0.28992,-0.72479 0.058,-1.4206 -0.23193,-1.420596 0.52185,-0.956728 0.55084,-2.49329 0.23194,-1.478579 0.28991,-1.246645 -0.28991,-1.188662 0.11596,-1.072695 0.34791,-1.971439 0.11596,-2.00043 0.31891,-1.739505 -0.058,-1.594546 0.3479,-1.362612 0.46387,-2.029423 0,-1.536562 0.31891,-2.203373 -0.31891,-1.362612 -0.17395,-1.420596 -0.17395,-0.898744 0.28991,-1.362612 0.66681,-0.637819 1.24665,-0.318909 1.13068,0.434876 0.81177,0 1.44958,-0.724793 1.4206,-0.231934 1.36261,0.17395 1.24665,-0.347901 1.42059,0.289918 1.59455,0.608826 1.18866,0.811769 1.07269,1.130679 0.89875,1.710513 0.40588,0.550843 0.11597,0.956728 0.49286,0.811768 0.28992,1.130679 0.17395,1.072694 -0.11597,0.956728 0.23193,0.840761 z"
         style="font-style:normal;font-variant:normal;font-weight:normal;font-stretch:semi-expanded;font-size:59.37509918px;font-family:Chiller;-inkscape-font-specification:'Chiller Semi-Expanded';fill:#ff5622;fill-opacity:1"
         id="path4999"
         inkscape:connector-curvature="0" />
      <path
         d="m 223.30903,81.713479 -0.058,0.66681 -0.78278,0.17395 -0.52185,-0.05798 -0.60882,-0.550843 0.55084,-0.463868 0.84076,-0.05798 0.57983,0.289918 z m -0.23193,-1.304629 -0.55084,0.724794 -0.75379,0 -0.89874,-0.31891 -0.84076,-0.405884 -0.86976,-0.637818 -0.17395,-0.550844 -1.07269,-0.231934 -0.60883,-0.231934 -1.18866,0.173951 -1.01471,0 -1.0437,0.05798 -1.44959,0.521852 -1.0437,0.608826 -1.68152,1.536563 -0.34791,0.840761 -0.55084,1.188661 0.14496,1.362613 0.46387,1.130678 0.46387,0.695802 1.50757,1.072694 0.86975,0.724794 1.01471,0.637818 0.78278,0.724794 0.92773,0.695802 1.91346,1.130678 0.95673,0.840761 0.6958,0.782777 0.66681,0.463868 0.17395,0.66681 0.95673,1.536563 0.40588,0.956728 0.23194,1.043703 0.43487,1.130678 0.3479,1.072695 0.058,1.53656 -0.23194,1.18867 -0.66681,1.3916 -0.3479,1.10169 -0.72479,0.78277 -0.3479,0.7248 -0.84076,0.86975 -0.75379,0.60883 -1.24664,0.46386 -1.68153,0.28992 -1.15967,0.26093 -1.33362,-0.26093 -0.92773,-0.058 -0.84076,-0.17395 -0.63782,-0.3479 -0.43488,0 -0.23193,-0.28992 0.11597,-0.66681 0.23193,-0.3479 0.43488,0 0,0.3479 0.11596,0.23193 0.40589,0.26093 0.84076,0.3479 1.88446,0.11597 0.60883,-0.17395 0.92773,0.058 1.24665,-0.3479 1.13068,-0.49286 1.3916,-0.95673 0.23193,-0.6958 0.57984,-0.95673 0.3479,-1.01471 0.43488,-0.75378 0.058,-0.89875 0.28992,-1.30463 -0.23194,-0.84076 -0.23193,-1.130679 -0.60883,-0.869752 -0.28991,-1.072695 -0.52186,-1.014711 -0.37689,-0.956728 -0.6958,-0.405884 -0.55084,-0.608827 -0.81177,-0.579835 -0.7248,-0.724794 -1.30462,-0.579835 -0.78278,-0.782777 -0.86975,-0.17395 -0.84077,-0.724794 -1.07269,-0.753785 -0.57983,-0.49286 -1.0727,-0.289918 -1.01471,-0.898744 -0.89874,-1.043703 -0.52186,-1.072694 -0.55084,-1.130678 0,-2.261357 0.49286,-1.246645 0.57984,-1.188662 0.66681,-1.014711 0.75378,-0.811769 0.72479,-0.66681 0.89875,-0.724794 1.07269,-0.521851 0.92774,-0.347901 1.36261,-0.05798 1.30463,-0.115967 1.30463,-0.31891 1.13068,-0.579835 1.18866,-0.347901 0.55084,-0.434876 1.13068,0.173951 0.63782,0.608826 0.37689,1.072695 0.46387,0.579835 0.57983,0.608827 0.3769,0.927736 0.11596,0.898744 0.11597,1.130678 z"
         style="font-style:normal;font-variant:normal;font-weight:normal;font-stretch:semi-expanded;font-size:59.37509918px;font-family:Chiller;-inkscape-font-specification:'Chiller Semi-Expanded';fill:#ff5622;fill-opacity:1"
         id="path5001"
         inkscape:connector-curvature="0" />
    </g>
    <path
       style="display:inline;opacity:0.2;fill:#ff9800;fill-opacity:1;stroke:none;stroke-width:3;stroke-linecap:round;stroke-linejoin:round;stroke-miterlimit:4;stroke-dasharray:none;stroke-dashoffset:3.20000005;stroke-opacity:1"
       d="m 30.48919,45.07831 a 6.1024105,6.1024105 0 0 0 -6.10241,6.10241 6.1024105,6.1024105 0 0 0 0.009,0.3218 6.1024105,6.1024105 0 0 1 6.09346,-5.91568 6.1024105,6.1024105 0 0 1 6.09149,5.7965 6.1024105,6.1024105 0 0 0 0.0109,-0.20262 6.1024105,6.1024105 0 0 0 -6.10241,-6.10241 z m 18.30723,5.08534 0,0.29697 0,0.21156 1.77987,0 c 2.85876,0 5.18556,2.14157 5.32571,4.83108 0.005,-0.0849 0.0139,-0.16834 0.0139,-0.25427 0,-2.80856 -2.39062,-5.08534 -5.33961,-5.08534 l -1.77987,0 z m 20.34137,0 c -2.02112,0.001 -3.84981,1.19882 -4.65825,3.0512 l 0.26022,0 c 0.90043,-1.55893 2.56924,-2.54175 4.39803,-2.54267 1.82739,0.002 3.49434,0.98487 4.39405,2.54267 l 0.26023,0 c -0.80787,-1.85107 -2.6346,-3.04866 -4.65428,-3.0512 z m 14.23896,0 0,0.43106 0,0.0775 2.03413,0 c 2.80856,0 5.08535,2.27679 5.08535,5.08534 l 0,-0.50853 c 0,-2.80856 -2.27679,-5.08534 -5.08535,-5.08534 l -2.03413,0 z m -65.08146,1.22763 a 12.204821,12.204821 0 0 0 -0.0109,0.29797 12.204821,12.204821 0 0 0 7.49293,11.25629 l 2.23875,-5.68228 a 6.1024105,6.1024105 0 0 1 -0.16687,-0.0844 l -2.07188,5.25816 A 12.204821,12.204821 0 0 1 18.29531,51.3913 Z m 24.3878,0.0795 A 12.204821,12.204821 0 0 1 35.1971,62.4281 l -2.06691,-5.24823 a 6.1024105,6.1024105 0 0 1 -0.16885,0.0804 l 2.23576,5.67632 a 12.204821,12.204821 0 0 0 7.49691,-11.24735 12.204821,12.204821 0 0 0 -0.0109,-0.21851 z m 16.2711,4.03252 c -0.13545,4.37502 -3.71574,7.88228 -8.12363,7.88228 l -2.03414,0 0,0.50853 2.03414,0 c 4.49369,0 8.13655,-3.64285 8.13655,-8.13655 0,-0.0858 -0.0103,-0.1691 -0.0129,-0.25426 z m 2.05996,0 c -0.003,0.0852 -0.0129,0.16846 -0.0129,0.25426 0,4.4937 3.64285,8.13655 8.13655,8.13655 l 4.06827,0 0,-0.50853 -4.06827,0 c -4.4079,0 -7.98818,-3.50726 -8.12364,-7.88228 z m 3.46936,1.77987 c 0.0769,0.17623 0.16556,0.34461 0.26023,0.50853 l 0.87702,0 3.51703,0 3.51902,0 1.13923,0 1.44416,0 1.76497,0 0.26917,0 0,-0.50853 -0.26917,0 -1.76497,0 -1.44416,0 -1.13923,0 -3.51902,0 -3.51703,0 -1.13725,0 z m 14.82496,6.10241 0,0.50853 4.06828,0 0,-0.50853 -4.06828,0 z m 11.18776,0 0,0.50853 3.0512,0 0,-0.50853 -3.0512,0 z m -45.76808,4.06827 0,0.50853 4.06827,0 0,-0.50853 -4.06827,0 z"
       id="path4598"
       inkscape:connector-curvature="0" />
  </g>
  <g
     transform="translate(0,-92)"
     inkscape:groupmode="layer"
     id="layer4"
     inkscape:label="foreground"
     style="display:inline">
    <path
       sodipodi:nodetypes="ccccccccccccccc"
       inkscape:connector-curvature="0"
       id="path4270"
       d="m 74.62517,116.30866 c -1.34347,-2.15437 -0.89048,-4.78378 -1.12706,-7.18467 0.57643,-3.38416 1.66092,-6.65027 2.68778,-9.917193 1.14339,-0.979795 0.56142,-3.422645 -1.10259,-3.291794 -2.45085,-0.472805 -4.54653,-1.950935 -6.89832,-2.705694 -0.74745,-0.789706 -2.18658,-2.097597 -2.72089,-0.323083 -0.3505,1.373473 -0.84519,2.682428 -1.74812,3.796747 -1.44884,2.053561 -2.99299,4.045187 -4.59174,5.982347 -1.60608,1.76961 -5.98644,4.33193 -7.55004,6.1333 -1.11176,1.18448 2.82336,1.46827 4.1197,1.10639 1.32601,-0.0832 2.77191,-0.67583 4.01761,0.06 0.90917,1.28554 0.36032,3.24341 1.72592,4.26756 0.96983,1.34079 3.14451,1.2077 4.06216,-0.12467 1.04115,-1.20965 2.72799,-0.95187 3.84135,-0.0217 1.68396,0.90451 3.40352,1.80604 5.28424,2.22246 z"
       style="display:inline;fill:#22311b;fill-opacity:1;fill-rule:evenodd;stroke:none;stroke-width:1px;stroke-linecap:butt;stroke-linejoin:miter;stroke-opacity:1" />
    <path
       inkscape:connector-curvature="0"
       id="path4286"
       d="m 66.3627,92.000523 c -0.37065,-0.01161 -0.6985,0.220519 -0.89887,0.885961 -0.3505,1.373474 -0.84515,2.681809 -1.74809,3.796129 -1.44884,2.053561 -2.99296,4.045067 -4.59171,5.982227 -1.60607,1.76961 -5.98594,4.33282 -7.54954,6.1342 -0.23635,0.2518 -0.23538,0.45984 -0.0894,0.63268 0.0276,-0.0411 0.0486,-0.0807 0.0894,-0.12415 1.5636,-1.80137 5.94347,-4.36458 7.54954,-6.13419 1.59875,-1.93716 3.14287,-3.928672 4.59171,-5.982233 0.90294,-1.11432 1.39759,-2.422655 1.74809,-3.796128 0.53431,-1.774514 1.974,-0.466907 2.72145,0.3228 2.35179,0.754758 4.44715,2.232756 6.89799,2.705561 0.9801,-0.07707 1.58067,0.739133 1.67856,1.622939 0.12042,-1.048067 -0.51076,-2.223305 -1.67856,-2.131473 -2.45084,-0.472806 -4.5462,-1.950803 -6.89799,-2.705562 -0.46715,-0.493566 -1.20481,-1.189414 -1.82258,-1.208761 z m 7.1612,17.497747 c -0.008,0.0449 -0.0182,0.0892 -0.0258,0.13409 0.21547,2.18668 -0.13622,4.56179 0.81346,6.59604 0.10472,0.0264 0.20814,0.057 0.31386,0.0805 -1.27435,-2.04352 -0.93815,-4.51269 -1.10149,-6.81059 z"
       style="display:inline;opacity:0.05;fill:#ffffff;fill-rule:evenodd;stroke:none;stroke-width:1px;stroke-linecap:butt;stroke-linejoin:miter;stroke-opacity:1" />
    <path
       inkscape:connector-curvature="0"
       id="path4291"
       d="m 74.0672,106.40535 c -0.2187,0.89931 -0.41341,1.8043 -0.56913,2.71847 0.0122,0.12353 0.017,0.24981 0.0258,0.37445 0.17849,-1.02317 0.40636,-2.03504 0.6605,-3.04028 a 44.751011,44.751011 0 0 0 -0.1172,-0.0526 z m -22.5821,3.02637 c -0.72401,1.07764 2.95957,1.33091 4.20832,0.98231 1.326,-0.0832 2.77192,-0.67627 4.01762,0.0596 0.90916,1.28554 0.36063,3.24376 1.72623,4.26792 0.96983,1.34079 3.14467,1.20721 4.06231,-0.12515 1.04115,-1.20965 2.72846,-0.95199 3.84182,-0.0219 1.68396,0.9045 3.40328,1.80643 5.28399,2.22285 -0.11986,-0.19221 -0.22083,-0.38971 -0.31386,-0.58899 -1.75828,-0.44304 -3.38083,-1.28873 -4.97013,-2.1424 -1.11336,-0.93014 -2.80067,-1.1878 -3.84182,0.0219 -0.91764,1.33236 -3.09248,1.46593 -4.06231,0.12514 -1.3656,-1.02415 -0.81707,-2.98238 -1.72623,-4.26791 -1.2457,-0.73587 -2.69162,-0.14276 -4.01762,-0.0596 -1.02076,0.28495 -3.66761,0.16644 -4.20832,-0.47378 z"
       style="display:inline;opacity:0.2;fill:#000000;fill-rule:evenodd;stroke:none;stroke-width:1px;stroke-linecap:butt;stroke-linejoin:miter;stroke-opacity:1" />
    <path
       inkscape:connector-curvature="0"
       id="path4296"
       d="m 67.18212,96.367759 c -0.62707,0.04989 -0.40319,0.970095 -0.5582,1.4819 -0.47102,1.0686 -1.07037,2.093287 -1.83747,2.979691 -1.21377,1.31528 -2.08291,2.89612 -3.26674,4.23514 -0.52548,0.71769 -1.2745,1.27439 -1.6726,2.07982 0.23465,0.64502 1.55777,0.5148 2.08578,0.0725 0.26694,-0.68802 0.32631,-1.44297 0.65355,-2.10962 0.88971,-1.49507 2.37316,-2.50336 3.46042,-3.84082 0.36631,-0.78321 1.06088,-1.333784 1.55341,-2.029173 0.44131,-0.921539 0.39787,-2.163256 1.32994,-2.794952 -0.47827,0.0383 -0.94904,0.05178 -1.4233,-0.03874 -0.12789,-0.03214 -0.23521,-0.04288 -0.32479,-0.03575 z m 3.87161,2.48705 c -0.16596,0.006 -0.33058,0.03269 -0.49165,0.09535 -0.68728,0.552485 -0.18485,1.666571 -0.77074,2.367861 -0.41045,0.68988 -0.6579,1.46228 -0.7489,2.2596 -0.0736,1.24436 -0.68619,2.36603 -1.43522,3.33328 -0.81169,0.97519 -1.42593,2.11785 -1.71432,3.35812 0.0493,0.83137 1.26582,0.78751 1.84046,0.5721 0.77412,-0.61101 0.29909,-1.74266 0.80253,-2.50195 0.13977,-0.99923 0.67587,-1.88612 1.26141,-2.68669 0.7428,-0.77406 1.1189,-1.82166 1.2167,-2.87739 -0.009,-1.41236 0.43653,-2.908284 1.55143,-3.842809 -0.49906,0.07115 -1.01381,-0.09554 -1.5117,-0.07747 z"
       style="opacity:0.28300003;fill:#1b5e20;fill-opacity:1;stroke:none;stroke-width:6.30000019;stroke-linecap:butt;stroke-linejoin:round;stroke-miterlimit:4;stroke-dasharray:none;stroke-opacity:1" />
  </g>
  <g
     transform="translate(0,-92)"
     inkscape:groupmode="layer"
     id="layer6"
     inkscape:label="light"
     style="display:inline;opacity:0.05">
    <path
       style="display:inline;opacity:1;fill:url(#radialGradient5027);fill-opacity:1;stroke:none;stroke-width:3;stroke-linecap:round;stroke-linejoin:round;stroke-miterlimit:4;stroke-dasharray:none;stroke-dashoffset:3.20000005;stroke-opacity:1"
       d="M 66.363281,0 C 65.992625,-0.01160879 65.66521,0.221276 65.464844,0.88671875 65.114344,2.2601918 64.619727,3.5692748 63.716797,4.6835938 62.277568,6.7235319 60.743673,8.7019256 59.15625,10.626953 c -1.071283,-0.07674 -2.1494,-0.128906 -3.240234,-0.128906 -24.7153,0 -44.751954,20.0347 -44.751954,44.75 0,24.7153 20.036654,44.751953 44.751954,44.751953 24.7153,0 44.750004,-20.036653 44.750004,-44.751953 0,-18.244746 -10.923039,-33.9272 -26.582036,-40.894531 0.589379,-2.411752 1.357449,-4.7791094 2.101563,-7.1464848 C 77.328937,6.2272363 76.747994,3.7832115 75.083984,3.9140625 72.633134,3.4412575 70.537337,1.9637434 68.185547,1.2089844 67.718391,0.71541813 66.981042,0.01934799 66.363281,0 Z"
       transform="translate(0,92)"
       id="path5014"
       inkscape:connector-curvature="0" />
  </g>
</svg>
