<svg xmlns:dc="http://purl.org/dc/elements/1.1/" xmlns:cc="http://creativecommons.org/ns#" xmlns:rdf="http://www.w3.org/1999/02/22-rdf-syntax-ns#" xmlns:svg="http://www.w3.org/2000/svg" xmlns:sodipodi="http://sodipodi.sourceforge.net/DTD/sodipodi-0.dtd" xmlns:inkscape="http://www.inkscape.org/namespaces/inkscape" xmlns="http://www.w3.org/2000/svg" xmlns:xlink="http://www.w3.org/1999/xlink" version="1.1" id="svg4966" inkscape:version="0.91" inkscape:export-xdpi="750" inkscape:export-ydpi="750" inkscape:export-filename="D:\Google Drive\Pictures\Android\Material Designs\icons\OpenGapps empty.png" sodipodi:docname="OpenGapps empty.svg" x="0" y="0" width="77.08" height="38.63" viewBox="-41.54 85.68 77.08 38.63" enable-background="new -41.542 85.678 77.083 38.625" xml:space="preserve">
  <sodipodi:namedview units="px" id="base" pagecolor="#ffffff" bordercolor="#666666" borderopacity="1" inkscape:zoom="3.96" inkscape:cx="70.9" inkscape:cy="73.86" showgrid="false" inkscape:window-maximized="1" inkscape:window-y="-8" inkscape:showpageshadow="false" inkscape:current-layer="layer2" inkscape:pageopacity="0" inkscape:window-x="-8" inkscape:document-units="px" inkscape:pageshadow="2" inkscape:window-width="1920" inkscape:window-height="1017">
    <inkscape:grid color="#000000" type="xygrid" empopacity="0.25" empcolor="#000000" opacity="0.13" empspacing="2" spacingx="4" spacingy="4" id="grid5626"/>
  </sodipodi:namedview>
  <g id="layer2" inkscape:label="background" inkscape:groupmode="layer" opacity="0.7">
    <g id="flowRoot4238" transform="matrix(0.99467384,0,0,1.0268479,16.782269,-24.905782)">
      <path id="path4198" fill="#FFFFFF" d="M-17.5 143.8c-0.31 0.47-0.78 0.83-1.41 1.09 -0.57 0.26-1.3 0.37-2.08 0.37 -0.78 0-1.51-0.21-2.13-0.57 -0.62-0.36-1.09-0.94-1.46-1.61s-0.52-1.51-0.52-2.4v-0.88c0-1.51 0.37-2.66 1.04-3.44 0.68-0.83 1.67-1.25 2.92-1.25 1.04 0 1.88 0.26 2.5 0.78 0.63 0.52 0.99 1.25 1.15 2.24h-1.3c-0.26-1.3-1.04-1.98-2.34-1.98 -0.89 0-1.51 0.31-1.98 0.94 -0.47 0.63-0.68 1.51-0.68 2.66v0.78c0 1.09 0.26 1.98 0.78 2.66 0.52 0.63 1.2 0.99 2.03 0.99 0.47 0 0.94-0.05 1.3-0.16 0.37-0.1 0.68-0.31 0.89-0.57v-2.24h-2.29v-1.04h3.59V143.8L-17.5 143.8z"/>
      <path id="path4200" fill="#FFFFFF" d="M-9.9 142.5h-4.11l-0.94 2.55h-1.35l3.75-9.89h1.15l3.8 9.9h-1.35L-9.9 142.5 -9.9 142.5zM-13.65 141.4h3.33l-1.67-4.63L-13.65 141.4z"/>
      <path id="path4202" fill="#FFFFFF" d="M-5 141.19v3.86h-1.25v-9.89h3.65c1.09 0 1.93 0.26 2.55 0.83 0.63 0.57 0.94 1.3 0.94 2.19 0 0.94-0.31 1.72-0.88 2.24 -0.57 0.52-1.46 0.78-2.55 0.78H-5L-5 141.19zM-5 140.15h2.34c0.68 0 1.25-0.16 1.62-0.47 0.36-0.31 0.57-0.78 0.57-1.41 0-0.57-0.21-1.04-0.57-1.41 -0.36-0.36-0.89-0.52-1.51-0.57h-2.4L-5 140.15 -5 140.15z"/>
      <path id="path4204" fill="#FFFFFF" d="M3.8 141.19v3.86H2.5v-9.89h3.65c1.09 0 1.93 0.26 2.55 0.83 0.63 0.57 0.94 1.3 0.94 2.19 0 0.94-0.31 1.72-0.89 2.24 -0.57 0.52-1.46 0.78-2.55 0.78H3.8L3.8 141.19zM3.8 140.15h2.34c0.68 0 1.25-0.16 1.62-0.47 0.37-0.31 0.57-0.78 0.57-1.41 0-0.57-0.21-1.04-0.57-1.41 -0.36-0.36-0.88-0.52-1.51-0.57H3.85v3.86H3.8z"/>
      <path id="path4206" fill="#FFFFFF" d="M14.16 140.67c-1.09-0.31-1.93-0.73-2.45-1.2 -0.52-0.47-0.78-1.04-0.78-1.72 0-0.78 0.31-1.41 0.94-1.93 0.63-0.52 1.46-0.78 2.45-0.78 0.68 0 1.3 0.16 1.82 0.42 0.52 0.26 0.94 0.63 1.25 1.09 0.31 0.47 0.42 0.99 0.42 1.51h-1.3c0-0.57-0.21-1.04-0.57-1.41 -0.36-0.36-0.94-0.52-1.61-0.52 -0.62 0-1.15 0.16-1.51 0.42 -0.36 0.26-0.52 0.68-0.52 1.2 0 0.42 0.16 0.73 0.52 1.04 0.37 0.26 0.94 0.52 1.72 0.78 0.83 0.21 1.46 0.47 1.93 0.78 0.47 0.26 0.83 0.63 1.04 0.99 0.21 0.37 0.36 0.78 0.36 1.3 0 0.78-0.31 1.46-0.94 1.93 -0.62 0.47-1.46 0.73-2.5 0.73 -0.68 0-1.3-0.1-1.87-0.36 -0.57-0.26-1.04-0.63-1.35-1.09 -0.31-0.47-0.47-0.99-0.47-1.56h1.3c0 0.57 0.21 1.09 0.68 1.41 0.47 0.36 1.04 0.52 1.77 0.52 0.68 0 1.2-0.16 1.56-0.42 0.37-0.26 0.57-0.68 0.57-1.14 0-0.47-0.16-0.83-0.52-1.09C15.67 141.19 15.05 140.93 14.16 140.67L14.16 140.67z"/>
    </g>
  </g>
  <g id="layer5" inkscape:label="foreground shadow" sodipodi:insensitive="true" inkscape:groupmode="layer">
    <path id="path4603" inkscape:connector-curvature="0" opacity="0.2" fill="#263238" enable-background="new    " d="M-29.04 87.76c-6.93 0-12.5 5.57-12.5 12.5 0 5.05 3.02 9.58 7.66 11.51l2.29-5.83c-2.24-0.99-3.7-3.23-3.7-5.73 0-3.44 2.81-6.25 6.25-6.25s6.25 2.81 6.25 6.25c0 2.45-1.46 4.69-3.7 5.73l2.29 5.83c4.64-1.93 7.66-6.46 7.66-11.51C-16.54 93.33-22.11 87.76-29.04 87.76zM-14.46 96.09v2.81 10.99 2.81 4.17h4.17v-4.17h2.08c4.58 0 8.33-3.75 8.33-8.33s-3.75-8.33-8.33-8.33h-2.08C-10.29 96.09-14.46 96.09-14.46 96.09zM10.54 96.09c-4.58 0-8.33 3.75-8.33 8.33 0 4.58 3.75 8.33 8.33 8.33h4.17v-3.12h-4.17c-2.08 0-3.96-1.25-4.79-3.12h1.15 3.59 3.59 1.15 1.46 1.82 0.26v-2.08C18.88 99.84 15.13 96.09 10.54 96.09zM20.96 96.09v16.67h4.17v-3.54 -8.96 -0.62 -0.42h2.08c2.86 0 5.21 2.34 5.21 5.21v8.33h3.13v-8.33c0-4.58-3.75-8.33-8.33-8.33h-2.08 -2.08H20.96zM-10.29 99.22h1.82c3.02 0 5.47 2.34 5.47 5.21 0 2.86-2.45 5.21-5.47 5.21h-1.82v-0.31 -0.73 -0.57 -7.19 -0.57 -0.73V99.22zM10.54 99.22c2.08 0 3.96 1.25 4.79 3.13h-1.15H7 5.85C6.58 100.47 8.46 99.22 10.54 99.22z"/>
  </g>
  <g id="layer4" inkscape:label="foreground" sodipodi:insensitive="true" inkscape:groupmode="layer">
    <path id="path4248" inkscape:connector-curvature="0" fill="#EEEEEE" d="M-29.04 85.68c-6.93 0-12.5 5.57-12.5 12.5 0 5.05 3.02 9.58 7.66 11.51l2.29-5.83c-2.24-0.99-3.7-3.23-3.7-5.73 0-3.44 2.81-6.25 6.25-6.25s6.25 2.81 6.25 6.25c0 2.45-1.46 4.69-3.7 5.73l2.29 5.83c4.64-1.93 7.66-6.46 7.66-11.51C-16.54 91.25-22.11 85.68-29.04 85.68zM-14.46 94.01v2.81 10.99 2.81 4.17h4.17v-4.17h2.08c4.58 0 8.33-3.75 8.33-8.33 0-4.58-3.75-8.33-8.33-8.33h-2.08C-10.29 94.01-14.46 94.01-14.46 94.01zM10.54 94.01c-4.58 0-8.33 3.75-8.33 8.33s3.75 8.33 8.33 8.33h4.17v-3.12h-4.17c-2.08 0-3.96-1.25-4.79-3.12h1.15 3.59 3.59 1.15 1.46 1.82 0.26v-2.08C18.88 97.76 15.13 94.01 10.54 94.01zM20.96 94.01v16.67h4.17v-3.54 -8.96 -0.62 -0.42h2.08c2.86 0 5.21 2.34 5.21 5.21v8.33h3.13v-8.33c0-4.58-3.75-8.33-8.33-8.33h-2.08 -2.08H20.96zM-10.29 97.14h1.82c3.02 0 5.47 2.34 5.47 5.21s-2.45 5.21-5.47 5.21h-1.82v-0.31 -0.73 -0.57V98.75v-0.57 -0.73V97.14zM10.54 97.14c2.08 0 3.96 1.25 4.79 3.13h-1.15H7 5.85C6.58 98.39 8.46 97.14 10.54 97.14z"/>
    <path id="path4593" inkscape:connector-curvature="0" opacity="0.4" fill="#FFFFFF" enable-background="new    " d="M-29.04 85.68c-6.93 0-12.5 5.57-12.5 12.5 0 0.05 0 0.16 0 0.21 0.16-6.77 5.73-12.19 12.5-12.19 6.82 0 12.34 5.47 12.5 12.29 0-0.1 0-0.21 0-0.31C-16.54 91.25-22.11 85.68-29.04 85.68zM-14.46 94.01v0.52h4.17 2.08c4.53 0 8.18 3.59 8.33 8.07 0-0.1 0-0.16 0-0.26 0-4.58-3.75-8.33-8.33-8.33h-2.08H-14.46zM10.54 94.01c-4.58 0-8.33 3.75-8.33 8.33 0 0.1 0 0.16 0 0.26 0.16-4.48 3.8-8.07 8.33-8.07 4.58 0 8.33 3.75 8.33 8.33v-0.52C18.88 97.76 15.13 94.01 10.54 94.01zM20.96 94.01v0.52h2.08 2.08 2.08c4.58 0 8.33 3.75 8.33 8.33v-0.52c0-4.58-3.75-8.33-8.33-8.33h-2.08 -2.08H20.96zM-22.79 98.39c-0.1 2.4-1.51 4.53-3.7 5.52l0.16 0.42c2.19-1.04 3.54-3.23 3.54-5.62C-22.79 98.59-22.79 98.49-22.79 98.39zM-35.29 98.49c0 0.05 0 0.1 0 0.21 0 2.4 1.41 4.58 3.54 5.63l0.16-0.42C-33.73 102.92-35.13 100.83-35.29 98.49zM6.06 100.26c-0.1 0.16-0.21 0.37-0.26 0.52h1.15 7.19 1.15c-0.1-0.16-0.16-0.36-0.26-0.52h-0.89H6.95 6.06zM-3 102.6c-0.16 2.76-2.55 4.95-5.47 4.95h-1.82v0.21 0.31h1.82c3.02 0 5.47-2.34 5.47-5.21C-3 102.76-3 102.71-3 102.6zM5.75 104.95c0.83 1.88 2.71 3.13 4.79 3.13h4.17v-0.52h-4.17c-1.87 0-3.59-0.99-4.48-2.6H5.75z"/>
    <path id="path4598" inkscape:connector-curvature="0" opacity="0.2" fill="#263238" enable-background="new    " d="M-29.04 91.93c-3.44 0-6.25 2.81-6.25 6.25 0 0.1 0 0.21 0 0.31 0.1-3.39 2.86-6.04 6.25-6.04 3.33 0 6.09 2.61 6.25 5.94 0-0.05 0-0.16 0-0.21C-22.79 94.74-25.6 91.93-29.04 91.93zM-10.29 97.14v0.31 0.21h1.82c2.92 0 5.31 2.19 5.47 4.95 0-0.1 0-0.16 0-0.26 0-2.86-2.45-5.21-5.47-5.21H-10.29zM10.54 97.14c-2.08 0-3.96 1.25-4.79 3.13h0.26c0.94-1.61 2.66-2.6 4.48-2.6 1.88 0 3.59 0.99 4.48 2.6h0.26C14.5 98.39 12.63 97.14 10.54 97.14zM25.13 97.14v0.42 0.1h2.08c2.86 0 5.21 2.34 5.21 5.21v-0.52c0-2.86-2.34-5.21-5.21-5.21H25.13zM-41.54 98.39c0 0.11 0 0.21 0 0.31 0 5.05 3.02 9.58 7.66 11.51l2.29-5.83c-0.05-0.05-0.1-0.05-0.16-0.1l-2.13 5.36C-38.42 107.81-41.44 103.33-41.54 98.39zM-16.54 98.49c-0.1 4.95-3.12 9.32-7.66 11.2l-2.14-5.36c-0.05 0.05-0.1 0.05-0.16 0.11l2.29 5.83c4.64-1.93 7.66-6.46 7.66-11.51C-16.54 98.65-16.54 98.54-16.54 98.49zM0.13 102.6c-0.16 4.48-3.8 8.07-8.33 8.07h-2.08v0.52h2.08c4.58 0 8.33-3.75 8.33-8.33C0.13 102.76 0.13 102.71 0.13 102.6zM2.21 102.6c0 0.11 0 0.16 0 0.26 0 4.58 3.75 8.33 8.33 8.33h4.17v-0.52h-4.17C6.01 110.68 2.37 107.08 2.21 102.6zM5.75 104.43c0.1 0.16 0.16 0.36 0.26 0.52h0.89 3.59 3.59 1.15 1.46 1.82 0.26v-0.52H18.51h-1.72 -1.46 -1.15 -3.65H6.95 5.75zM20.96 110.68v0.52h4.17v-0.52H20.96zM32.42 110.68v0.52h3.13v-0.52H32.42zM-14.46 114.84v0.52h4.17v-0.52H-14.46z"/>
  </g>
</svg>
