<?xml version="1.0" encoding="UTF-8" standalone="no"?>
<svg
   xmlns:dc="http://purl.org/dc/elements/1.1/"
   xmlns:cc="http://creativecommons.org/ns#"
   xmlns:rdf="http://www.w3.org/1999/02/22-rdf-syntax-ns#"
   xmlns:svg="http://www.w3.org/2000/svg"
   xmlns="http://www.w3.org/2000/svg"
   version="1.1"
   id="svg4966"
   viewBox="0 0 200 100"
   height="100"
   width="200">
  <defs
     id="defs4968">
    <clipPath
       clipPathUnits="userSpaceOnUse"
       id="clipPath642">
      <path
         d="M 0,192 192,192 192,0 0,0 0,192 Z"
         id="path644" />
    </clipPath>
    <clipPath
       clipPathUnits="userSpaceOnUse"
       id="clipPath652">
      <path
         d="M -1.52588e-4,192 192,192 192,-1.83105e-4 l -192.000152588,0 0,192.000183105 z"
         id="path654" />
    </clipPath>
    <clipPath
       clipPathUnits="userSpaceOnUse"
       id="clipPath660">
      <path
         d="M -1.52588e-4,192 192,192 192,-1.83105e-4 l -192.000152588,0 0,192.000183105 z"
         id="path662" />
    </clipPath>
    <clipPath
       clipPathUnits="userSpaceOnUse"
       id="clipPath664">
      <path
         d="M 0,192 192,192 192,0 0,0 0,192 Z"
         id="path666" />
    </clipPath>
    <clipPath
       clipPathUnits="userSpaceOnUse"
       id="clipPath668">
      <path
         d="M 0,192 192,192 192,0 0,0 0,192 Z"
         id="path670" />
    </clipPath>
    <clipPath
       clipPathUnits="userSpaceOnUse"
       id="clipPath672">
      <path
         d="M 0,192 192,192 192,0 0,0 0,192 Z"
         id="path674" />
    </clipPath>
    <filter
       style="color-interpolation-filters:sRGB"
       id="filter5709">
      <feFlood
         flood-opacity="0.121569"
         flood-color="rgb(0,0,0)"
         result="flood"
         id="feFlood5711" />
      <feComposite
         in="flood"
         in2="SourceGraphic"
         operator="in"
         result="composite1"
         id="feComposite5713" />
      <feGaussianBlur
         in="composite1"
         stdDeviation="2"
         result="blur"
         id="feGaussianBlur5715" />
      <feOffset
         dx="0"
         dy="0"
         result="offset"
         id="feOffset5717" />
      <feComposite
         in="SourceGraphic"
         in2="offset"
         operator="over"
         result="fbSourceGraphic"
         id="feComposite5719" />
      <feColorMatrix
         result="fbSourceGraphicAlpha"
         in="fbSourceGraphic"
         values="0 0 0 -1 0 0 0 0 -1 0 0 0 0 -1 0 0 0 0 1 0"
         id="feColorMatrix5721" />
      <feFlood
         id="feFlood5723"
         flood-opacity="0.121569"
         flood-color="rgb(0,0,0)"
         result="flood"
         in="fbSourceGraphic" />
      <feComposite
         id="feComposite5725"
         in2="fbSourceGraphic"
         in="flood"
         operator="in"
         result="composite1" />
      <feGaussianBlur
         id="feGaussianBlur5727"
         in="composite1"
         stdDeviation="2"
         result="blur" />
      <feOffset
         id="feOffset5729"
         dx="0"
         dy="4"
         result="offset" />
      <feComposite
         id="feComposite5731"
         in2="offset"
         in="fbSourceGraphic"
         operator="over"
         result="composite2" />
    </filter>
    <filter
       style="color-interpolation-filters:sRGB"
       id="filter5775">
      <feGaussianBlur
         stdDeviation="2 2"
         result="blur"
         id="feGaussianBlur5777" />
    </filter>
    <filter
       style="color-interpolation-filters:sRGB"
       id="filter5799">
      <feGaussianBlur
         stdDeviation="4 4"
         result="blur"
         id="feGaussianBlur5801" />
    </filter>
    <filter
       style="color-interpolation-filters:sRGB"
       id="filter5980">
      <feGaussianBlur
         stdDeviation="2 2"
         result="blur"
         id="feGaussianBlur5982" />
    </filter>
    <filter
       style="color-interpolation-filters:sRGB"
       id="filter5140">
      <feGaussianBlur
         stdDeviation="4 4"
         result="blur"
         id="feGaussianBlur5142" />
    </filter>
    <filter
       id="filter4683"
       style="color-interpolation-filters:sRGB">
      <feGaussianBlur
         id="feGaussianBlur4685"
         result="blur"
         stdDeviation="4 4" />
    </filter>
  </defs>
  <metadata
     id="metadata4971">
    <rdf:RDF>
      <cc:Work
         rdf:about="">
        <dc:format>image/svg+xml</dc:format>
        <dc:type
           rdf:resource="http://purl.org/dc/dcmitype/StillImage" />
        <dc:title></dc:title>
      </cc:Work>
    </rdf:RDF>
  </metadata>
  <g
     transform="translate(-7.1999998,-41.999991)"
     style="display:inline"
     id="layer2">
    <g
       id="flowRoot4238"
       style="font-style:normal;font-weight:normal;font-size:40px;line-height:125%;font-family:sans-serif;letter-spacing:0px;word-spacing:0px;display:inline;fill:#bfbfbf;fill-opacity:1;stroke:none;stroke-width:1px;stroke-linecap:butt;stroke-linejoin:miter;stroke-opacity:1"
       transform="matrix(1.3441533,0,0,1.3876316,0.1490136,-78.142836)">
      <path
         id="path4198"
         style="font-style:normal;font-variant:normal;font-weight:normal;font-stretch:normal;font-size:26.66381073px;font-family:Roboto;-inkscape-font-specification:Roboto;fill:#bfbfbf"
         d="m 84.196182,155.89935 q -0.963439,1.38006 -2.695024,2.07009 -1.718566,0.67701 -4.009987,0.67701 -2.31746,0 -4.114143,-1.08061 -1.796682,-1.09363 -2.78616,-3.09863 -0.976458,-2.00499 -1.002496,-4.64794 l 0,-1.65347 q 0,-4.28339 1.991974,-6.63991 2.004993,-2.35652 5.624397,-2.35652 2.968432,0 4.778134,1.52328 1.809702,1.51025 2.213305,4.29641 l -2.499732,0 q -0.70305,-3.76262 -4.478687,-3.76262 -2.512752,0 -3.814696,1.77065 -1.288924,1.75762 -1.301944,5.10362 l 0,1.54931 q 0,3.18976 1.458177,5.07758 1.458178,1.8748 3.94489,1.8748 1.4061,0 2.460674,-0.31247 1.054575,-0.31246 1.744605,-1.05457 l 0,-4.25736 -4.387551,0 0,-2.03103 6.874264,0 0,6.95238 z" />
      <path
         id="path4200"
         style="font-style:normal;font-variant:normal;font-weight:normal;font-stretch:normal;font-size:26.66381073px;font-family:Roboto;-inkscape-font-specification:Roboto;fill:#bfbfbf"
         d="m 98.843051,153.43868 -7.941858,0 -1.783663,4.94738 -2.577849,0 7.238808,-18.9563 2.187266,0 7.251825,18.9563 -2.56483,0 -1.809699,-4.94738 z m -7.186731,-2.05708 6.444623,0 -3.228821,-8.86623 -3.215802,8.86623 z" />
      <path
         id="path4202"
         style="font-style:normal;font-variant:normal;font-weight:normal;font-stretch:normal;font-size:26.66381073px;font-family:Roboto;-inkscape-font-specification:Roboto;fill:#bfbfbf"
         d="m 108.26912,150.96498 0,7.42108 -2.49973,0 0,-18.9563 6.99144,0 q 3.11165,0 4.86927,1.58837 1.77064,1.58837 1.77064,4.20528 0,2.76012 -1.73158,4.25736 -1.71857,1.48421 -4.93437,1.48421 l -4.46567,0 z m 0,-2.04405 4.49171,0 q 2.00499,0 3.07259,-0.9374 1.06759,-0.95042 1.06759,-2.73408 0,-1.69253 -1.06759,-2.70804 -1.0676,-1.01552 -2.92938,-1.05458 l -4.63492,0 0,7.4341 z" />
      <path
         id="path4204"
         style="font-style:normal;font-variant:normal;font-weight:normal;font-stretch:normal;font-size:26.66381073px;font-family:Roboto;-inkscape-font-specification:Roboto;fill:#bfbfbf"
         d="m 125.09024,150.96498 0,7.42108 -2.49973,0 0,-18.9563 6.99143,0 q 3.11165,0 4.86927,1.58837 1.77065,1.58837 1.77065,4.20528 0,2.76012 -1.73159,4.25736 -1.71856,1.48421 -4.93436,1.48421 l -4.46567,0 z m 0,-2.04405 4.4917,0 q 2.005,0 3.07259,-0.9374 1.0676,-0.95042 1.0676,-2.73408 0,-1.69253 -1.0676,-2.70804 -1.06759,-1.01552 -2.92937,-1.05458 l -4.63492,0 0,7.4341 z" />
      <path
         id="path4206"
         style="font-style:normal;font-variant:normal;font-weight:normal;font-stretch:normal;font-size:26.66381073px;font-family:Roboto;-inkscape-font-specification:Roboto;fill:#bfbfbf"
         d="m 144.99696,149.93645 q -3.2158,-0.92438 -4.687,-2.26539 -1.45818,-1.35402 -1.45818,-3.33297 0,-2.23935 1.78367,-3.69752 1.79668,-1.4712 4.66096,-1.4712 1.95291,0 3.47619,0.75513 1.53629,0.75513 2.36953,2.08311 0.84627,1.32798 0.84627,2.90333 l -2.51275,0 q 0,-1.71856 -1.09364,-2.69502 -1.09363,-0.98948 -3.0856,-0.98948 -1.84876,0 -2.89032,0.82023 -1.02854,0.8072 -1.02854,2.25236 0,1.15873 0.97646,1.96594 0.98948,0.79418 3.346,1.45817 2.36954,0.66399 3.69752,1.4712 1.341,0.79418 1.97895,1.86178 0.65098,1.06759 0.65098,2.51275 0,2.30444 -1.79669,3.69752 -1.79668,1.38006 -4.80417,1.38006 -1.95292,0 -3.64544,-0.74211 -1.69253,-0.75512 -2.61691,-2.05707 -0.91136,-1.30194 -0.91136,-2.95541 l 2.51275,0 q 0,1.71857 1.26289,2.72106 1.2759,0.98948 3.39807,0.98948 1.97895,0 3.03353,-0.80721 1.05457,-0.8072 1.05457,-2.20028 0,-1.39308 -0.97645,-2.14821 -0.97646,-0.76815 -3.54129,-1.51025 z" />
    </g>
  </g>
  <g
     transform="translate(-7.1999998,-41.999991)"
     id="layer5"
     style="display:inline" />
  <g
     transform="translate(-7.1999998,-41.999991)"
     id="layer4"
     style="display:inline">
    <path
       id="path4599"
       d="m 39.632372,41.999992 a 32.432432,32.432432 0 0 0 -12.521115,2.52058 32.432432,32.432432 0 0 0 -0.625528,0.28771 32.432432,32.432432 0 0 0 -1.908256,0.92377 32.432432,32.432432 0 0 0 -1.631123,0.93433 32.432432,32.432432 0 0 0 -1.156039,0.70999 32.432432,32.432432 0 0 0 -1.48068,1.05838 32.432432,32.432432 0 0 0 -1.161317,0.88154 32.432432,32.432432 0 0 0 -1.353991,1.19035 32.432432,32.432432 0 0 0 -1.02671,0.9581 32.432432,32.432432 0 0 0 -1.248416,1.33551 32.432432,32.432432 0 0 0 -0.94753,1.07685 32.432432,32.432432 0 0 0 -1.092695,1.4411 32.432432,32.432432 0 0 0 -0.831397,1.16131 32.432432,32.432432 0 0 0 -0.918497,1.49916 32.432432,32.432432 0 0 0 -0.752216,1.30912 32.432432,32.432432 0 0 0 -0.752218,1.55987 32.432432,32.432432 0 0 0 -0.609692,1.35927 32.432432,32.432432 0 0 0 -0.607051,1.66543 32.432432,32.432432 0 0 0 -0.464527,1.4015 32.432432,32.432432 0 0 0 -0.4196584,1.63112 32.432432,32.432432 0 0 0 -0.348396,1.55195 32.432432,32.432432 0 0 0 -0.242821,1.6232 32.432432,32.432432 0 0 0 -0.192673,1.57834 32.432432,32.432432 0 0 0 -0.139886,2.77396 32.432432,32.432432 0 0 0 0.139886,2.77395 32.432432,32.432432 0 0 0 0.192673,1.57834 32.432432,32.432432 0 0 0 0.242821,1.62322 32.432432,32.432432 0 0 0 0.348396,1.55193 32.432432,32.432432 0 0 0 0.4196584,1.63112 32.432432,32.432432 0 0 0 0.464527,1.4015 32.432432,32.432432 0 0 0 0.607051,1.66545 32.432432,32.432432 0 0 0 0.609692,1.35926 32.432432,32.432432 0 0 0 0.752218,1.55986 32.432432,32.432432 0 0 0 0.752216,1.30912 32.432432,32.432432 0 0 0 0.918497,1.49916 32.432432,32.432432 0 0 0 0.831397,1.16132 32.432432,32.432432 0 0 0 1.092695,1.44109 32.432432,32.432432 0 0 0 0.94753,1.07685 32.432432,32.432432 0 0 0 1.248416,1.33551 32.432432,32.432432 0 0 0 1.02671,0.9581 32.432432,32.432432 0 0 0 1.353991,1.19035 32.432432,32.432432 0 0 0 1.161317,0.881538 32.432432,32.432432 0 0 0 1.48068,1.05838 32.432432,32.432432 0 0 0 1.156039,0.71 32.432432,32.432432 0 0 0 1.631123,0.93432 32.432432,32.432432 0 0 0 1.908256,0.92379 32.432432,32.432432 0 0 0 0.625528,0.28769 32.432432,32.432432 0 0 0 12.521115,2.52058 32.432432,32.432432 0 0 0 12.510557,-2.54434 32.432432,32.432432 0 0 0 2.919131,-1.39623 32.432432,32.432432 0 0 0 0.0053,-0.003 32.432432,32.432432 0 0 0 0.01584,-0.0108 32.432432,32.432432 0 0 0 2.729096,-1.65752 32.432432,32.432432 0 0 0 0.102933,-0.0739 32.432432,32.432432 0 0 0 2.454602,-1.847548 32.432432,32.432432 0 0 0 0.216427,-0.19003 32.432432,32.432432 0 0 0 2.145799,-1.98479 32.432432,32.432432 0 0 0 0.282411,-0.30353 32.432432,32.432432 0 0 0 1.842273,-2.08246 32.432432,32.432432 0 0 0 0.348395,-0.45397 32.432432,32.432432 0 0 0 1.55986,-2.16954 32.432432,32.432432 0 0 0 0.306167,-0.49621 32.432432,32.432432 0 0 0 1.303841,-2.25138 32.432432,32.432432 0 0 0 0.353675,-0.73109 32.432432,32.432432 0 0 0 0.98184,-2.17219 32.432432,32.432432 0 0 0 0.343118,-0.93697 32.432432,32.432432 0 0 0 0.69943,-2.07718 32.432432,32.432432 0 0 0 0.295608,-1.16132 32.432432,32.432432 0 0 0 0.446051,-1.94257 32.432432,32.432432 0 0 0 0.203231,-1.3487 32.432432,32.432432 0 0 0 0.229624,-1.82645 32.432432,32.432432 0 0 0 0.137256,-2.77098 32.432432,32.432432 0 0 0 -0.137246,-2.77133 32.432432,32.432432 0 0 0 -0.229624,-1.82643 32.432432,32.432432 0 0 0 -0.203231,-1.34872 32.432432,32.432432 0 0 0 -0.446052,-1.94257 32.432432,32.432432 0 0 0 -0.295608,-1.16132 32.432432,32.432432 0 0 0 -0.69943,-2.07716 32.432432,32.432432 0 0 0 -0.343117,-0.93697 32.432432,32.432432 0 0 0 -0.981841,-2.17221 32.432432,32.432432 0 0 0 -0.353674,-0.73109 32.432432,32.432432 0 0 0 -1.303842,-2.25138 32.432432,32.432432 0 0 0 -0.306166,-0.49619 32.432432,32.432432 0 0 0 -1.559861,-2.16955 32.432432,32.432432 0 0 0 -0.348395,-0.45398 32.432432,32.432432 0 0 0 -1.842273,-2.08246 32.432432,32.432432 0 0 0 -0.28241,-0.30352 32.432432,32.432432 0 0 0 -2.145799,-1.9848 32.432432,32.432432 0 0 0 -0.216427,-0.19003 32.432432,32.432432 0 0 0 -2.454603,-1.84755 32.432432,32.432432 0 0 0 -0.102932,-0.0739 32.432432,32.432432 0 0 0 -2.729096,-1.65751 32.432432,32.432432 0 0 0 -0.01584,-0.0108 32.432432,32.432432 0 0 0 -0.0053,-0.003 32.432432,32.432432 0 0 0 -2.919141,-1.39617 32.432432,32.432432 0 0 0 -12.510557,-2.54434 z m 0,13.51352 a 18.918919,18.918919 0 0 1 18.918919,18.91892 18.918919,18.918919 0 0 1 -18.918919,18.91891 18.918919,18.918919 0 0 1 -18.918919,-18.91891 18.918919,18.918919 0 0 1 18.918919,-18.91892 z m 37.837838,8.1081 v 7.34798 28.53409 7.361178 10.81081 h 10.810811 v -10.81081 h 5.405405 c 11.941294,0 21.621624,-9.680328 21.621624,-21.621618 0,-11.94129 -9.68033,-21.62163 -21.621624,-21.62163 h -5.405405 z m 64.86487,0 c -11.9413,0 -21.62163,9.68034 -21.62163,21.62163 0,11.94131 9.68033,21.621618 21.62163,21.621618 h 10.81081 v -8.108108 h -10.81081 c -5.36699,-0.007 -10.22123,-3.18916 -12.36803,-8.10811 h 3.02205 9.34598 9.35124 3.02735 3.83762 4.69014 0.71527 v -5.4054 c 0,-11.94129 -9.68033,-21.62163 -21.62162,-21.62163 z m 27.02702,0 v 43.243248 h 10.81081 v -9.253598 -23.17883 -1.55722 -1.14549 h 5.40541 c 7.46331,0 13.51351,6.05021 13.51351,13.51352 v 21.621618 h 8.10811 V 85.243242 c 0,-11.9413 -9.68032,-21.62163 -21.62162,-21.62163 h -5.40541 -5.4054 z m -81.081079,8.10811 h 4.72973 c 7.836469,0 14.189189,6.05021 14.189189,13.51352 0,7.46331 -6.35271,13.51351 -14.189189,13.51351 h -4.72973 v -0.78916 -1.91354 -1.45957 -18.69722 -1.46483 -1.91355 z m 54.054059,0 c 5.36698,0.007 10.22122,3.18918 12.36802,8.10811 h -3.02205 -18.69722 -3.02735 c 2.14832,-4.92243 7.00777,-8.10542 12.3786,-8.10811 z"
       style="display:inline;opacity:1;fill:#eeeeee;fill-opacity:1;stroke:none;stroke-width:4.05405426;stroke-linecap:round;stroke-linejoin:round;stroke-miterlimit:4;stroke-dasharray:none;stroke-dashoffset:3.20000005;stroke-opacity:1" />
    <path
       id="path4648"
       d="m 39.632372,41.999992 a 32.432432,32.432432 0 0 0 -12.521115,2.52058 32.432432,32.432432 0 0 0 -0.625528,0.28771 32.432432,32.432432 0 0 0 -1.908256,0.92377 32.432432,32.432432 0 0 0 -1.631123,0.93433 32.432432,32.432432 0 0 0 -1.156039,0.70999 32.432432,32.432432 0 0 0 -1.48068,1.05838 32.432432,32.432432 0 0 0 -1.161317,0.88154 32.432432,32.432432 0 0 0 -1.353991,1.19035 32.432432,32.432432 0 0 0 -1.02671,0.9581 32.432432,32.432432 0 0 0 -1.248416,1.33551 32.432432,32.432432 0 0 0 -0.94753,1.07685 32.432432,32.432432 0 0 0 -1.092695,1.4411 32.432432,32.432432 0 0 0 -0.831397,1.16131 32.432432,32.432432 0 0 0 -0.918497,1.49916 32.432432,32.432432 0 0 0 -0.752216,1.30912 32.432432,32.432432 0 0 0 -0.752218,1.55987 32.432432,32.432432 0 0 0 -0.609692,1.35927 32.432432,32.432432 0 0 0 -0.607051,1.66543 32.432432,32.432432 0 0 0 -0.464527,1.4015 32.432432,32.432432 0 0 0 -0.4196584,1.63112 32.432432,32.432432 0 0 0 -0.348396,1.55195 32.432432,32.432432 0 0 0 -0.242821,1.6232 32.432432,32.432432 0 0 0 -0.192673,1.57834 32.432432,32.432432 0 0 0 -0.139886,2.77396 32.432432,32.432432 0 0 0 0.03431,0.67567 32.432432,32.432432 0 0 1 0.105581,-2.09828 32.432432,32.432432 0 0 1 0.192673,-1.57834 32.432432,32.432432 0 0 1 0.24282,-1.6232 32.432432,32.432432 0 0 1 0.348396,-1.55195 32.432432,32.432432 0 0 1 0.4196584,-1.63112 32.432432,32.432432 0 0 1 0.464527,-1.4015 32.432432,32.432432 0 0 1 0.607052,-1.66543 32.432432,32.432432 0 0 1 0.609691,-1.35927 32.432432,32.432432 0 0 1 0.752218,-1.55987 32.432432,32.432432 0 0 1 0.752216,-1.30912 32.432432,32.432432 0 0 1 0.918498,-1.49916 32.432432,32.432432 0 0 1 0.831397,-1.16131 32.432432,32.432432 0 0 1 1.092694,-1.4411 32.432432,32.432432 0 0 1 0.94753,-1.07685 32.432432,32.432432 0 0 1 1.248416,-1.33551 32.432432,32.432432 0 0 1 1.026711,-0.9581 32.432432,32.432432 0 0 1 1.35399,-1.19035 32.432432,32.432432 0 0 1 1.161318,-0.88154 32.432432,32.432432 0 0 1 1.48068,-1.05838 32.432432,32.432432 0 0 1 1.156039,-0.70998 32.432432,32.432432 0 0 1 1.631123,-0.93434 32.432432,32.432432 0 0 1 1.908255,-0.92377 32.432432,32.432432 0 0 1 0.625529,-0.2877 32.432432,32.432432 0 0 1 12.521109,-2.52059 32.432432,32.432432 0 0 1 12.510557,2.54434 32.432432,32.432432 0 0 1 2.919131,1.39623 32.432432,32.432432 0 0 1 0.0053,0.003 32.432432,32.432432 0 0 1 0.01584,0.0108 32.432432,32.432432 0 0 1 2.729096,1.65751 32.432432,32.432432 0 0 1 0.102933,0.0739 32.432432,32.432432 0 0 1 2.454602,1.84755 32.432432,32.432432 0 0 1 0.216427,0.19003 32.432432,32.432432 0 0 1 2.145799,1.9848 32.432432,32.432432 0 0 1 0.282411,0.30352 32.432432,32.432432 0 0 1 1.842273,2.08246 32.432432,32.432432 0 0 1 0.348395,0.45398 32.432432,32.432432 0 0 1 1.55986,2.16954 32.432432,32.432432 0 0 1 0.306167,0.4962 32.432432,32.432432 0 0 1 1.303841,2.25138 32.432432,32.432432 0 0 1 0.353675,0.73109 32.432432,32.432432 0 0 1 0.98184,2.17219 32.432432,32.432432 0 0 1 0.343118,0.93697 32.432432,32.432432 0 0 1 0.69943,2.07718 32.432432,32.432432 0 0 1 0.295608,1.16132 32.432432,32.432432 0 0 1 0.446051,1.94257 32.432432,32.432432 0 0 1 0.203231,1.34872 32.432432,32.432432 0 0 1 0.229624,1.82643 32.432432,32.432432 0 0 1 0.102946,2.09559 32.432432,32.432432 0 0 0 0.03431,-0.67567 32.432432,32.432432 0 0 0 -0.137247,-2.77133 32.432432,32.432432 0 0 0 -0.229624,-1.82643 32.432432,32.432432 0 0 0 -0.203231,-1.34871 32.432432,32.432432 0 0 0 -0.446052,-1.94257 32.432432,32.432432 0 0 0 -0.295608,-1.16133 32.432432,32.432432 0 0 0 -0.69943,-2.07716 32.432432,32.432432 0 0 0 -0.343117,-0.93697 32.432432,32.432432 0 0 0 -0.981841,-2.1722 32.432432,32.432432 0 0 0 -0.353674,-0.7311 32.432432,32.432432 0 0 0 -1.303842,-2.25138 32.432432,32.432432 0 0 0 -0.306166,-0.49619 32.432432,32.432432 0 0 0 -1.559861,-2.16955 32.432432,32.432432 0 0 0 -0.348395,-0.45397 32.432432,32.432432 0 0 0 -1.842273,-2.08246 32.432432,32.432432 0 0 0 -0.28241,-0.30353 32.432432,32.432432 0 0 0 -2.145799,-1.9848 32.432432,32.432432 0 0 0 -0.216427,-0.19002 32.432432,32.432432 0 0 0 -2.454603,-1.84756 32.432432,32.432432 0 0 0 -0.102932,-0.0739 32.432432,32.432432 0 0 0 -2.729096,-1.65751 32.432432,32.432432 0 0 0 -0.01584,-0.0108 32.432432,32.432432 0 0 0 -0.0053,-0.003 32.432432,32.432432 0 0 0 -2.919141,-1.39618 32.432432,32.432432 0 0 0 -12.510557,-2.54434 z m 37.837838,21.62162 v 1.35136 h 10.810811 5.405405 c 11.713284,0 21.227354,9.32 21.587314,20.94594 0.007,-0.2263 0.0343,-0.44767 0.0343,-0.67567 0,-11.94129 -9.68034,-21.62163 -21.621625,-21.62163 H 88.28102 Z m 64.86487,0 c -11.9413,0 -21.62163,9.68034 -21.62163,21.62163 0,0.228 0.0273,0.44937 0.0343,0.67567 0.35994,-11.62593 9.87401,-20.94594 21.58731,-20.94594 11.94129,0 21.62162,9.68033 21.62162,21.62162 v -1.35135 c 0,-11.94129 -9.68033,-21.62163 -21.62162,-21.62163 z m 27.02702,0 v 1.35136 h 5.40541 5.4054 5.40541 c 11.9413,0 21.62162,9.68032 21.62162,21.62162 v -1.35135 c 0,-11.9413 -9.68032,-21.62163 -21.62162,-21.62163 h -5.40541 -5.4054 z M 58.522259,74.991972 a 18.918919,18.918919 0 0 1 -18.889887,18.35937 18.918919,18.918919 0 0 1 -18.889887,-18.1271 18.918919,18.918919 0 0 0 -0.02903,0.55954 18.918919,18.918919 0 0 0 18.918919,18.91892 18.918919,18.918919 0 0 0 18.918919,-18.91892 18.918919,18.918919 0 0 0 -0.02903,-0.79181 z"
       style="display:inline;opacity:0.4;fill:#ffffff;fill-opacity:1;stroke:none;stroke-width:4.05405426;stroke-linecap:round;stroke-linejoin:round;stroke-miterlimit:4;stroke-dasharray:none;stroke-dashoffset:3.20000005;stroke-opacity:1" />
    <path
       id="path4629"
       d="m 39.632372,55.513512 a 18.918919,18.918919 0 0 0 -18.918919,18.91892 18.918919,18.918919 0 0 0 0.02903,0.55954 18.918919,18.918919 0 0 1 18.889892,-18.12711 18.918919,18.918919 0 0 1 18.889887,18.35938 18.918919,18.918919 0 0 0 0.02903,-0.79181 18.918919,18.918919 0 0 0 -18.918922,-18.91892 z m 48.648649,16.21621 v 0.78916 0.56219 h 4.72973 c 7.596719,0 13.779829,5.6909 14.152239,12.83784 0.0118,-0.22555 0.037,-0.44734 0.037,-0.67567 0,-7.46331 -6.35272,-13.51352 -14.189191,-13.51352 z m 54.054059,0 c -5.37083,0.003 -10.23028,3.18568 -12.3786,8.10811 h 0.69151 c 2.39276,-4.14262 6.82737,-6.75432 11.68709,-6.75676 4.85601,0.007 9.28566,2.61713 11.67651,6.75676 h 0.69151 c -2.1468,-4.91893 -7.00104,-8.10135 -12.36802,-8.10811 z m 37.83783,0 v 1.14549 0.20586 h 5.40541 c 7.46331,0 13.51351,6.05021 13.51351,13.51352 v -1.35135 c 0,-7.46331 -6.0502,-13.51352 -13.51351,-13.51352 z M 7.2342516,75.108102 a 32.432432,32.432432 0 0 0 -0.03431,0.67568 32.432432,32.432432 0 0 0 0.139887,2.77396 32.432432,32.432432 0 0 0 0.192673,1.57833 32.432432,32.432432 0 0 0 0.24282,1.62322 32.432432,32.432432 0 0 0 0.348396,1.55193 32.432432,32.432432 0 0 0 0.4196584,1.63112 32.432432,32.432432 0 0 0 0.464527,1.4015 32.432432,32.432432 0 0 0 0.607052,1.66545 32.432432,32.432432 0 0 0 0.609691,1.35926 32.432432,32.432432 0 0 0 0.752218,1.55986 32.432432,32.432432 0 0 0 0.752216,1.30912 32.432432,32.432432 0 0 0 0.918497,1.49917 32.432432,32.432432 0 0 0 0.831398,1.16131 32.432432,32.432432 0 0 0 1.092694,1.44109 32.432432,32.432432 0 0 0 0.94753,1.07685 32.432432,32.432432 0 0 0 1.248416,1.33552 32.432432,32.432432 0 0 0 1.026711,0.95809 32.432432,32.432432 0 0 0 1.35399,1.190348 32.432432,32.432432 0 0 0 1.161318,0.88154 32.432432,32.432432 0 0 0 1.48068,1.05838 32.432432,32.432432 0 0 0 1.156039,0.71 32.432432,32.432432 0 0 0 1.631123,0.93433 32.432432,32.432432 0 0 0 1.908255,0.92378 32.432432,32.432432 0 0 0 0.625528,0.28769 32.432432,32.432432 0 0 0 12.521116,2.52058 32.432432,32.432432 0 0 0 12.510557,-2.54434 32.432432,32.432432 0 0 0 2.919131,-1.39623 32.432432,32.432432 0 0 0 0.0053,-0.003 32.432432,32.432432 0 0 0 0.01584,-0.0108 32.432432,32.432432 0 0 0 2.729096,-1.65752 32.432432,32.432432 0 0 0 0.102932,-0.0739 32.432432,32.432432 0 0 0 2.454603,-1.84756 32.432432,32.432432 0 0 0 0.216427,-0.19003 32.432432,32.432432 0 0 0 2.145798,-1.984788 32.432432,32.432432 0 0 0 0.282411,-0.30353 32.432432,32.432432 0 0 0 1.842273,-2.08246 32.432432,32.432432 0 0 0 0.348395,-0.45397 32.432432,32.432432 0 0 0 1.559861,-2.16954 32.432432,32.432432 0 0 0 0.306166,-0.49621 32.432432,32.432432 0 0 0 1.303842,-2.25137 32.432432,32.432432 0 0 0 0.353674,-0.7311 32.432432,32.432432 0 0 0 0.981841,-2.17219 32.432432,32.432432 0 0 0 0.343117,-0.93697 32.432432,32.432432 0 0 0 0.69943,-2.07718 32.432432,32.432432 0 0 0 0.295608,-1.16132 32.432432,32.432432 0 0 0 0.446051,-1.94257 32.432432,32.432432 0 0 0 0.203231,-1.34871 32.432432,32.432432 0 0 0 0.229625,-1.82644 32.432432,32.432432 0 0 0 0.137255,-2.77098 32.432432,32.432432 0 0 0 -0.03431,-0.67568 32.432432,32.432432 0 0 1 -0.102932,2.09565 32.432432,32.432432 0 0 1 -0.229624,1.82643 32.432432,32.432432 0 0 1 -0.203231,1.34872 32.432432,32.432432 0 0 1 -0.446052,1.94257 32.432432,32.432432 0 0 1 -0.295608,1.16132 32.432432,32.432432 0 0 1 -0.69943,2.07718 32.432432,32.432432 0 0 1 -0.343117,0.93696 32.432432,32.432432 0 0 1 -0.981841,2.1722 32.432432,32.432432 0 0 1 -0.353674,0.73109 32.432432,32.432432 0 0 1 -1.303842,2.25138 32.432432,32.432432 0 0 1 -0.306166,0.4962 32.432432,32.432432 0 0 1 -1.559861,2.16954 32.432432,32.432432 0 0 1 -0.348395,0.45398 32.432432,32.432432 0 0 1 -1.842273,2.08246 32.432432,32.432432 0 0 1 -0.28241,0.30352 32.432432,32.432432 0 0 1 -2.145799,1.9848 32.432432,32.432432 0 0 1 -0.216427,0.19003 32.432432,32.432432 0 0 1 -2.454603,1.847548 32.432432,32.432432 0 0 1 -0.102932,0.0739 32.432432,32.432432 0 0 1 -2.729096,1.65751 32.432432,32.432432 0 0 1 -0.01584,0.0108 32.432432,32.432432 0 0 1 -0.0053,0.003 32.432432,32.432432 0 0 1 -2.919131,1.39623 32.432432,32.432432 0 0 1 -12.510569,2.544 32.432432,32.432432 0 0 1 -12.521116,-2.52058 32.432432,32.432432 0 0 1 -0.625528,-0.28769 32.432432,32.432432 0 0 1 -1.908255,-0.92379 32.432432,32.432432 0 0 1 -1.631123,-0.93432 32.432432,32.432432 0 0 1 -1.156039,-0.71 32.432432,32.432432 0 0 1 -1.48068,-1.05838 32.432432,32.432432 0 0 1 -1.161318,-0.881538 32.432432,32.432432 0 0 1 -1.35399,-1.19035 32.432432,32.432432 0 0 1 -1.026711,-0.9581 32.432432,32.432432 0 0 1 -1.248416,-1.33551 32.432432,32.432432 0 0 1 -0.94753,-1.07685 32.432432,32.432432 0 0 1 -1.092694,-1.44109 32.432432,32.432432 0 0 1 -0.831398,-1.16132 32.432432,32.432432 0 0 1 -0.918497,-1.49916 32.432432,32.432432 0 0 1 -0.752216,-1.30912 32.432432,32.432432 0 0 1 -0.752218,-1.55986 32.432432,32.432432 0 0 1 -0.609691,-1.35926 32.432432,32.432432 0 0 1 -0.607052,-1.66545 32.432432,32.432432 0 0 1 -0.464527,-1.4015 32.432432,32.432432 0 0 1 -0.4196584,-1.63112 32.432432,32.432432 0 0 1 -0.348396,-1.55193 32.432432,32.432432 0 0 1 -0.24282,-1.62322 32.432432,32.432432 0 0 1 -0.192673,-1.57834 32.432432,32.432432 0 0 1 -0.105581,-2.09828 z M 115.27374,85.918912 c -0.35996,11.62595 -9.87403,20.945948 -21.587314,20.945948 h -5.405405 v 1.35135 h 5.405405 c 11.941294,0 21.621624,-9.680328 21.621624,-21.621618 0,-0.228 -0.0273,-0.44938 -0.0343,-0.67568 z m 5.47402,0 c -0.007,0.2263 -0.0343,0.44768 -0.0343,0.67568 0,11.94131 9.68033,21.621618 21.62163,21.621618 h 10.81081 v -1.35135 h -10.81081 c -11.7133,0 -21.22736,-9.319988 -21.58732,-20.945948 z m 9.21929,4.72973 c 0.20439,0.46833 0.43992,0.91576 0.69151,1.35135 h 2.33054 9.34598 9.35124 3.02735 3.83762 4.69014 0.71527 v -1.35135 h -0.71527 -4.69014 -3.83762 -3.02735 -9.35124 -9.34598 z m 39.39505,16.216218 v 1.35135 h 10.81081 v -1.35135 z m 29.72973,0 v 1.35135 h 8.10811 v -1.35135 z M 77.47021,117.67567 v 1.35135 h 10.810811 v -1.35135 z"
       style="display:inline;opacity:0.2;fill:#263238;fill-opacity:1;stroke:none;stroke-width:4.05405426;stroke-linecap:round;stroke-linejoin:round;stroke-miterlimit:4;stroke-dasharray:none;stroke-dashoffset:3.20000005;stroke-opacity:1" />
  </g>
</svg>
