<svg xmlns:dc="http://purl.org/dc/elements/1.1/" xmlns:cc="http://creativecommons.org/ns#" xmlns:rdf="http://www.w3.org/1999/02/22-rdf-syntax-ns#" xmlns:svg="http://www.w3.org/2000/svg" xmlns="http://www.w3.org/2000/svg" xmlns:sodipodi="http://sodipodi.sourceforge.net/DTD/sodipodi-0.dtd" xmlns:inkscape="http://www.inkscape.org/namespaces/inkscape" width="200" height="100" viewBox="0 0 200 100" id="svg4966" version="1.1" inkscape:version="0.91" sodipodi:docname="OpenGapps - no background plain.svg" inkscape:export-filename="D:\Google Drive\Pictures\Android\Material Designs\icons\OpenGapps empty.png" inkscape:export-xdpi="750" inkscape:export-ydpi="750">
  <sodipodi:namedview id="base" pagecolor="#009688" bordercolor="#666666" borderopacity="1" inkscape:pageopacity="0" inkscape:pageshadow="2" inkscape:zoom="3.96" inkscape:cx="88.35" inkscape:cy="83.89" inkscape:document-units="px" inkscape:current-layer="layer4" showgrid="false" inkscape:showpageshadow="false" units="px" inkscape:window-width="1920" inkscape:window-height="1017" inkscape:window-x="-8" inkscape:window-y="-8" inkscape:window-maximized="1" fit-margin-top="4" fit-margin-left="0" fit-margin-right="0" fit-margin-bottom="4">
    <inkscape:grid empopacity="0.25" empcolor="#000000" opacity="0.13" color="#000000" empspacing="2" spacingx="4" spacingy="4" id="grid5626" type="xygrid" originx="-7.2" originy="-50"/>
  </sodipodi:namedview>
  <defs id="defs4968">
    <clipPath id="clipPath642" clipPathUnits="userSpaceOnUse">
      <path inkscape:connector-curvature="0" id="path644" d="M0 192 192 192 192 0 0 0 0 192Z"/>
    </clipPath>
    <clipPath id="clipPath652" clipPathUnits="userSpaceOnUse">
      <path inkscape:connector-curvature="0" id="path654" d="M0 192 192 192 192 0l-192 0 0 192z"/>
    </clipPath>
    <clipPath id="clipPath660" clipPathUnits="userSpaceOnUse">
      <path inkscape:connector-curvature="0" id="path662" d="M0 192 192 192 192 0l-192 0 0 192z"/>
    </clipPath>
    <clipPath id="clipPath664" clipPathUnits="userSpaceOnUse">
      <path inkscape:connector-curvature="0" id="path666" d="M0 192 192 192 192 0 0 0 0 192Z"/>
    </clipPath>
    <clipPath id="clipPath668" clipPathUnits="userSpaceOnUse">
      <path inkscape:connector-curvature="0" id="path670" d="M0 192 192 192 192 0 0 0 0 192Z"/>
    </clipPath>
    <clipPath id="clipPath672" clipPathUnits="userSpaceOnUse">
      <path inkscape:connector-curvature="0" id="path674" d="M0 192 192 192 192 0 0 0 0 192Z"/>
    </clipPath>
    <filter id="filter5709" inkscape:label="Drop Shadow" color-interpolation-filters="sRGB">
      <feFlood id="feFlood5711" result="flood" flood-color="rgb(0,0,0)" flood-opacity="0.12"/>
      <feComposite id="feComposite5713" result="composite1" operator="in" in2="SourceGraphic" in="flood"/>
      <feGaussianBlur id="feGaussianBlur5715" result="blur" stdDeviation="2" in="composite1"/>
      <feOffset id="feOffset5717" result="offset" dy="0" dx="0"/>
      <feComposite id="feComposite5719" result="fbSourceGraphic" operator="over" in2="offset" in="SourceGraphic"/>
      <feColorMatrix id="feColorMatrix5721" values="0" in="fbSourceGraphic" result="fbSourceGraphicAlpha"/>
      <feFlood in="fbSourceGraphic" result="flood" flood-color="rgb(0,0,0)" flood-opacity="0.12" id="feFlood5723"/>
      <feComposite result="composite1" operator="in" in="flood" in2="fbSourceGraphic" id="feComposite5725"/>
      <feGaussianBlur result="blur" stdDeviation="2" in="composite1" id="feGaussianBlur5727"/>
      <feOffset result="offset" dy="4" dx="0" id="feOffset5729"/>
      <feComposite result="composite2" operator="over" in="fbSourceGraphic" in2="offset" id="feComposite5731"/>
    </filter>
    <filter id="filter5775" inkscape:label="Blur" color-interpolation-filters="sRGB">
      <feGaussianBlur id="feGaussianBlur5777" result="blur" stdDeviation="2"/>
    </filter>
    <filter id="filter5799" inkscape:label="Blur" color-interpolation-filters="sRGB">
      <feGaussianBlur id="feGaussianBlur5801" result="blur" stdDeviation="4"/>
    </filter>
    <filter id="filter5980" inkscape:label="Blur" color-interpolation-filters="sRGB">
      <feGaussianBlur id="feGaussianBlur5982" result="blur" stdDeviation="2"/>
    </filter>
    <filter id="filter5140" inkscape:label="Blur" color-interpolation-filters="sRGB">
      <feGaussianBlur id="feGaussianBlur5142" result="blur" stdDeviation="4"/>
    </filter>
    <filter inkscape:label="Blur" id="filter4683" color-interpolation-filters="sRGB">
      <feGaussianBlur stdDeviation="4" result="blur" id="feGaussianBlur4685"/>
    </filter>
  </defs>
  <metadata id="metadata4971">
    <rdf:RDF>
      <cc:Work rdf:about="">
        <dc:format>
          image/svg+xml
        </dc:format>
        <dc:type rdf:resource="http://purl.org/dc/dcmitype/StillImage"/>
      </cc:Work>
    </rdf:RDF>
  </metadata>
  <g inkscape:groupmode="layer" id="layer2" inkscape:label="background" transform="translate(-7.1999998,-41.999991)" display="inline">
    <g transform="matrix(1.3441533,0,0,1.3876316,0.1490136,-78.142836)" id="flowRoot4238" style="display:inline;fill:#b2dfdb;font-family:sans-serif;font-size:40;letter-spacing:0;line-height:125;word-spacing:0">
      <path d="m84.2 155.9q-0.96 1.38-2.7 2.07-1.72 0.68-4.01 0.68-2.32 0-4.11-1.08-1.8-1.09-2.79-3.1-0.98-2-1-4.65l0-1.65q0-4.28 1.99-6.64 2-2.36 5.62-2.36 2.97 0 4.78 1.52 1.81 1.51 2.21 4.3l-2.5 0q-0.7-3.76-4.48-3.76-2.51 0-3.81 1.77-1.29 1.76-1.3 5.1l0 1.55q0 3.19 1.46 5.08 1.46 1.87 3.94 1.87 1.41 0 2.46-0.31 1.05-0.31 1.74-1.05l0-4.26-4.39 0 0-2.03 6.87 0 0 6.95z" id="path4198" inkscape:connector-curvature="0" style="-inkscape-font-specification:Roboto;fill:#b2dfdb;font-family:Roboto;font-size:26.66"/>
      <path d="m98.84 153.44-7.94 0-1.78 4.95-2.58 0 7.24-18.96 2.19 0 7.25 18.96-2.56 0-1.81-4.95zm-7.19-2.06 6.44 0-3.23-8.87-3.22 8.87z" id="path4200" inkscape:connector-curvature="0" style="-inkscape-font-specification:Roboto;fill:#b2dfdb;font-family:Roboto;font-size:26.66"/>
      <path d="m108.27 150.96 0 7.42-2.5 0 0-18.96 6.99 0q3.11 0 4.87 1.59 1.77 1.59 1.77 4.21 0 2.76-1.73 4.26-1.72 1.48-4.93 1.48l-4.47 0zm0-2.04 4.49 0q2 0 3.07-0.94 1.07-0.95 1.07-2.73 0-1.69-1.07-2.71-1.07-1.02-2.93-1.05l-4.63 0 0 7.43z" id="path4202" inkscape:connector-curvature="0" style="-inkscape-font-specification:Roboto;fill:#b2dfdb;font-family:Roboto;font-size:26.66"/>
      <path d="m125.09 150.96 0 7.42-2.5 0 0-18.96 6.99 0q3.11 0 4.87 1.59 1.77 1.59 1.77 4.21 0 2.76-1.73 4.26-1.72 1.48-4.93 1.48l-4.47 0zm0-2.04 4.49 0q2.01 0 3.07-0.94 1.07-0.95 1.07-2.73 0-1.69-1.07-2.71-1.07-1.02-2.93-1.05l-4.63 0 0 7.43z" id="path4204" inkscape:connector-curvature="0" style="-inkscape-font-specification:Roboto;fill:#b2dfdb;font-family:Roboto;font-size:26.66"/>
      <path d="m145 149.94q-3.22-0.92-4.69-2.27-1.46-1.35-1.46-3.33 0-2.24 1.78-3.7 1.8-1.47 4.66-1.47 1.95 0 3.48 0.76 1.54 0.76 2.37 2.08 0.85 1.33 0.85 2.9l-2.51 0q0-1.72-1.09-2.7-1.09-0.99-3.09-0.99-1.85 0-2.89 0.82-1.03 0.81-1.03 2.25 0 1.16 0.98 1.97 0.99 0.79 3.35 1.46 2.37 0.66 3.7 1.47 1.34 0.79 1.98 1.86 0.65 1.07 0.65 2.51 0 2.3-1.8 3.7-1.8 1.38-4.8 1.38-1.95 0-3.65-0.74-1.69-0.76-2.62-2.06-0.91-1.3-0.91-2.96l2.51 0q0 1.72 1.26 2.72 1.28 0.99 3.4 0.99 1.98 0 3.03-0.81 1.05-0.81 1.05-2.2 0-1.39-0.98-2.15-0.98-0.77-3.54-1.51z" id="path4206" inkscape:connector-curvature="0" style="-inkscape-font-specification:Roboto;fill:#b2dfdb;font-family:Roboto;font-size:26.66"/>
    </g>
  </g>
  <g inkscape:label="foreground shadow" id="layer5" inkscape:groupmode="layer" transform="translate(-7.1999998,-41.999991)" display="inline"/>
  <g inkscape:label="foreground" id="layer4" inkscape:groupmode="layer" transform="translate(-7.1999998,-41.999991)" display="inline">
    <path inkscape:connector-curvature="0" id="path4248" d="M39.63 42A32.43 32.43 0 0 0 7.2 74.43 32.43 32.43 0 0 0 27.11 104.34L33.06 89.24A16.22 16.22 0 0 1 23.42 74.43 16.22 16.22 0 0 1 39.63 58.22 16.22 16.22 0 0 1 55.85 74.43 16.22 16.22 0 0 1 46.2 89.24l5.94 15.08A32.43 32.43 0 0 0 72.06 74.43 32.43 32.43 0 0 0 39.63 42Zm37.84 21.62 0 7.35 0 28.53 0 7.36 0 10.81 10.81 0 0-10.81 5.41 0c11.94 0 21.62-9.68 21.62-21.62 0-11.94-9.68-21.62-21.62-21.62l-5.41 0-10.81 0zm64.86 0c-11.94 0-21.62 9.68-21.62 21.62 0 11.94 9.68 21.62 21.62 21.62l10.81 0 0-8.11-10.81 0c-5.37-0.01-10.22-3.19-12.37-8.11l3.02 0 9.35 0 9.35 0 3.03 0 3.84 0 4.69 0 0.72 0 0-5.41c0-11.94-9.68-21.62-21.62-21.62zm27.03 0 0 43.24 10.81 0 0-9.25 0-23.18 0-1.56 0-1.15 5.41 0c7.46 0 13.51 6.05 13.51 13.51l0 21.62 8.11 0 0-21.62c0-11.94-9.68-21.62-21.62-21.62l-5.41 0-5.41 0-5.41 0zm-81.08 8.11 4.73 0c7.84 0 14.19 6.05 14.19 13.51 0 7.46-6.35 13.51-14.19 13.51l-4.73 0 0-0.79 0-1.91 0-1.46 0-18.7 0-1.46 0-1.91 0-0.79zm54.05 0c5.37 0.01 10.22 3.19 12.37 8.11l-3.02 0-18.7 0-3.03 0c2.15-4.92 7.01-8.11 12.38-8.11z" fill="#eee"/>
    <path d="M32.43 0A32.43 32.43 0 0 0 0 32.43 32.43 32.43 0 0 0 0.02 32.85 32.43 32.43 0 0 1 32.43 1 32.43 32.43 0 0 1 64.84 33 32.43 32.43 0 0 0 64.87 32.43 32.43 32.43 0 0 0 32.43 0zM70.27 21.62L70.27 22.62 81.08 22.62 86.49 22.62C98.26 22.62 107.83 32.03 108.1 43.74 108.1 43.58 108.11 43.41 108.11 43.24 108.11 31.3 98.43 21.62 86.49 21.62L81.08 21.62 70.27 21.62zM135.13 21.62C123.19 21.62 113.51 31.3 113.51 43.24 113.51 43.41 113.52 43.58 113.53 43.74 113.79 32.03 123.36 22.62 135.13 22.62 147.08 22.62 156.76 32.3 156.76 44.24L156.76 43.24C156.76 31.3 147.08 21.62 135.13 21.62zM162.16 21.62L162.16 22.62 167.57 22.62 172.97 22.62 178.38 22.62C190.32 22.62 200 32.3 200 44.24L200 43.24C200 31.3 190.32 21.62 178.38 21.62L172.97 21.62 167.57 21.62 162.16 21.62zM48.63 32.84A16.22 16.22 0 0 1 39 47.24L39.33 48.08A16.22 16.22 0 0 0 48.65 33.43 16.22 16.22 0 0 0 48.63 32.84zM16.23 33.08A16.22 16.22 0 0 0 16.22 33.43 16.22 16.22 0 0 0 25.53 48.08L25.86 47.24A16.22 16.22 0 0 1 16.23 33.08zM123.25 37.84C123.07 38.16 122.91 38.5 122.76 38.84L125.78 38.84 144.48 38.84 147.5 38.84C147.35 38.5 147.19 38.16 147.01 37.84L144.48 37.84 125.78 37.84 123.25 37.84zM99.97 43.74C99.69 50.97 93.47 56.76 85.81 56.76L81.08 56.76 81.08 56.97 81.08 57.76 85.81 57.76C93.65 57.76 100 51.71 100 44.24 100 44.08 99.98 43.91 99.97 43.74zM122.77 49.65C124.91 54.57 129.77 57.75 135.13 57.76L145.95 57.76 145.95 56.76 135.13 56.76C130.14 56.75 125.6 53.99 123.26 49.65L122.77 49.65z" transform="translate(7.1999998,41.999991)" id="path4186" style="fill:#fff;opacity:0.4"/>
    <path d="m39.63 58.22a16.22 16.22 0 0 0-16.21 16.21 16.22 16.22 0 0 0 0.02 0.64 16.22 16.22 0 0 1 16.2-15.86 16.22 16.22 0 0 1 16.2 15.62 16.22 16.22 0 0 0 0.02-0.41 16.22 16.22 0 0 0-16.22-16.21zm48.65 13.51 0 0.79 0 0.21 4.73 0c7.66 0 13.88 5.78 14.16 13.01 0.01-0.17 0.03-0.33 0.03-0.5 0-7.46-6.35-13.51-14.19-13.51l-4.73 0zm54.05 0c-5.37 0-10.23 3.18-12.38 8.11l0.49 0c2.34-4.35 6.89-7.1 11.89-7.11 4.99 0.01 9.54 2.76 11.88 7.11l0.49 0c-2.15-4.92-7-8.1-12.37-8.11zm37.84 0 0 1 5.41 0c7.46 0 13.51 6.05 13.51 13.51l0-1c0-7.46-6.05-13.51-13.51-13.51l-5.41 0zM7.22 74.85A32.43 32.43 0 0 0 7.2 75.43 32.43 32.43 0 0 0 27.11 105.34L33.06 90.24A16.22 16.22 0 0 1 32.73 90.08L27.11 104.34A32.43 32.43 0 0 1 7.22 74.85ZM72.04 75A32.43 32.43 0 0 1 52.14 104.32L46.53 90.08a16.22 16.22 0 0 1-0.33 0.16L52.14 105.32A32.43 32.43 0 0 0 72.07 75.43 32.43 32.43 0 0 0 72.04 75Zm43.25 10.75c-0.27 11.71-9.84 21.12-21.61 21.12l-5.41 0 0 1 5.41 0c11.94 0 21.62-9.68 21.62-21.62 0-0.17-0.01-0.33-0.01-0.5zm5.43 0c0 0.17-0.01 0.33-0.01 0.5 0 11.94 9.68 21.62 21.62 21.62l10.81 0 0-1-10.81 0c-11.77 0-21.34-9.41-21.61-21.12zm9.24 4.9c0.15 0.34 0.32 0.67 0.49 1l2.53 0 9.35 0 9.35 0 3.03 0 3.84 0 4.69 0 0.71 0 0-1-0.71 0-4.69 0-3.84 0-3.03 0-9.35 0-9.35 0-3.02 0zm39.39 16.22 0 1 10.81 0 0-1-10.81 0zm29.73 0 0 1 8.11 0 0-1-8.11 0zm-121.62 10.81 0 1 10.81 0 0-1-10.81 0z" id="path4191" inkscape:connector-curvature="0" style="fill:#263238;opacity:0.2"/>
  </g>
</svg>
